<svg id="Capa_1" data-name="Capa 1" xmlns="http://www.w3.org/2000/svg" xmlns:xlink="http://www.w3.org/1999/xlink" viewBox="0 0 403.98 224.64"><defs><style>.cls-1{fill:#4bbdfc;}.cls-2{fill:url(#Degradado_sin_nombre_14);}.cls-3{fill:url(#Degradado_sin_nombre_22);}.cls-4{fill:none;stroke-linecap:round;stroke-linejoin:round;stroke-width:7px;stroke:url(#Degradado_sin_nombre_26);}.cls-5{fill:#317ccf;}.cls-6{fill:#c6c6c5;}.cls-10,.cls-7{fill:#fafbff;}.cls-7,.cls-8{fill-rule:evenodd;}.cls-8,.cls-9{fill:#fff;}.cls-11{fill:#2d7acc;}</style><linearGradient id="Degradado_sin_nombre_14" x1="164.4" y1="123.61" x2="239.58" y2="48.43" gradientTransform="translate(15.97 -30.59) rotate(9.01)" gradientUnits="userSpaceOnUse"><stop offset="0" stop-color="#50b3f4"/><stop offset="1" stop-color="#317ccd"/></linearGradient><linearGradient id="Degradado_sin_nombre_22" x1="-155.28" y1="231.97" x2="-61.38" y2="231.97" gradientTransform="translate(289.41 326.65) rotate(135)" gradientUnits="userSpaceOnUse"><stop offset="0" stop-color="#1e3a84"/><stop offset="0" stop-color="#1e3b85"/><stop offset="0.14" stop-color="#24529f"/><stop offset="0.29" stop-color="#2864b3"/><stop offset="0.46" stop-color="#2b70c1"/><stop offset="0.66" stop-color="#2c78c9"/><stop offset="1" stop-color="#2d7acc"/></linearGradient><linearGradient id="Degradado_sin_nombre_26" x1="-80.2" y1="392.67" x2="-3.47" y2="315.94" gradientTransform="translate(154 446.48) rotate(180)" gradientUnits="userSpaceOnUse"><stop offset="0" stop-color="#2f7cd6"/><stop offset="1" stop-color="#3fbcf4"/></linearGradient></defs><path class="cls-1" d="M276.35,31.29l-.18-.18a4.68,4.68,0,0,0-6.64,0L257.61,43A4.7,4.7,0,0,1,251,43h0a4.7,4.7,0,0,1,0-6.64l3-3a4.7,4.7,0,0,0,0-6.64l-.18-.18a4.7,4.7,0,0,0-6.64,0L215.73,58a4.7,4.7,0,0,0,0,6.64l.08.08a4.7,4.7,0,0,1,0,6.64L195.53,91.63a4.7,4.7,0,0,0,0,6.64l.18.18a4.7,4.7,0,0,0,6.64,0l28-28a4.68,4.68,0,0,1,6.64,0l0,0a4.68,4.68,0,0,1,0,6.64l-3.07,3.08a4.68,4.68,0,0,0,0,6.64l.18.18a4.7,4.7,0,0,0,6.64,0L262,65.75a4.7,4.7,0,0,0,0-6.64l-.1-.11a4.68,4.68,0,0,1,0-6.64l14.43-14.43A4.68,4.68,0,0,0,276.35,31.29Z"/><path class="cls-1" d="M184.6,72.79l.12.11a4.73,4.73,0,0,0,6.69,0l45.14-45.13a4.74,4.74,0,0,0,0-6.7l-.18-.18a4.74,4.74,0,0,0-6.7,0L206.19,44.38a4.74,4.74,0,0,1-6.7,0l-.12-.12a4.73,4.73,0,0,0-6.69,0L166.05,70.89a4.73,4.73,0,0,0,0,6.69l.18.19a4.74,4.74,0,0,0,6.69,0l5-5A4.74,4.74,0,0,1,184.6,72.79Z"/><circle class="cls-2" cx="201.99" cy="86.02" r="53.16" transform="translate(-10.98 32.71) rotate(-9.01)"/><circle class="cls-3" cx="201.99" cy="86.02" r="46.95"/><path class="cls-4" d="M202,26.56A59.47,59.47,0,1,0,261.45,86"/><path class="cls-5" d="M160.87,136.67h0a4.88,4.88,0,0,1,0,6.92l-4.74,4.75a4.89,4.89,0,0,1-6.92,0h0a4.88,4.88,0,0,1,0-6.92l4.74-4.75A4.89,4.89,0,0,1,160.87,136.67Z"/><path class="cls-5" d="M198,136.67h0a4.89,4.89,0,0,1,0,6.92l-8.67,8.67a4.88,4.88,0,0,1-6.92,0h0a4.89,4.89,0,0,1,0-6.92l8.67-8.67A4.89,4.89,0,0,1,198,136.67Z"/><path class="cls-6" d="M178.18,83.67l12.63-5.94a.2.2,0,0,1,.26.1.21.21,0,0,1-.09.26l-12.8,6v-.43Zm0-.65,11.44-5.18a.18.18,0,0,0,.09-.25.19.19,0,0,0-.25-.1L178.18,82.6ZM164.46,78a.19.19,0,0,1-.1-.25.2.2,0,0,1,.26-.1L178,83.74l.15-.07v.43l-.06,0a.49.49,0,0,1-.17,0L164.46,78Zm13.72,4.64-.33.15-10.94-5.33a.19.19,0,0,0-.26.09.19.19,0,0,0,.09.26l11,5.36a.33.33,0,0,0,.17,0l.25-.12Z"/><path class="cls-7" d="M188.12,75.49a1.92,1.92,0,1,1-1.91,1.92A1.91,1.91,0,0,1,188.12,75.49Z"/><path class="cls-8" d="M205.52,76.33H207l1.4,5.33-1.9.58a9.82,9.82,0,0,0-1.79-2.7,3.65,3.65,0,0,0-2.53-1.1,3.33,3.33,0,0,0-1.86.57,3.9,3.9,0,0,0-1.36,1.7,6.2,6.2,0,0,0-.51,2.61,6.69,6.69,0,0,0,1.16,3.94,3.56,3.56,0,0,0,3,1.65,4.25,4.25,0,0,0,2.31-.71,8.17,8.17,0,0,0,2.38-2.38L208.9,87a12.12,12.12,0,0,1-2.83,3.06,7.75,7.75,0,0,1-4.4,1.33,6.84,6.84,0,0,1-3.65-1,7.28,7.28,0,0,1-2.6-2.81,8.16,8.16,0,0,1-1-4,7.9,7.9,0,0,1,1-3.87A7.22,7.22,0,0,1,205.18,77l.34-.64Zm4.5,0h5.8L220,85V79.7a3,3,0,0,0-.07-.86.76.76,0,0,0-.27-.35,1.5,1.5,0,0,0-.68-.1h-.69V76.33h5.89v2.06h-.66a1.51,1.51,0,0,0-.7.12.58.58,0,0,0-.29.31,3.14,3.14,0,0,0-.08.88V91.17h-2.94l-5.3-10.93v7.65a2.75,2.75,0,0,0,.08.84.55.55,0,0,0,.28.28,1.44,1.44,0,0,0,.69.11h.68v2H210v-2h.61a1.82,1.82,0,0,0,.7-.09.65.65,0,0,0,.3-.31,1.49,1.49,0,0,0,.12-.67V79.54a1.8,1.8,0,0,0-.11-.72.69.69,0,0,0-.27-.33,1.2,1.2,0,0,0-.58-.1H210V76.33Zm15.08,0h7v2.06h-.69a1.35,1.35,0,0,0-.67.12.59.59,0,0,0-.29.33,2.43,2.43,0,0,0-.1.89v5.4a6.42,6.42,0,0,0,.3,2.26,2.34,2.34,0,0,0,.88,1.13,2.51,2.51,0,0,0,1.43.39,2.65,2.65,0,0,0,1.49-.43,2.36,2.36,0,0,0,.93-1.08,5.8,5.8,0,0,0,.29-2.16v-6a1.09,1.09,0,0,0-.1-.53.71.71,0,0,0-.32-.3,2.58,2.58,0,0,0-.73-.06h-.55V76.33h5.9v2.06h-.46a2.41,2.41,0,0,0-.85.08.86.86,0,0,0-.36.37,2.93,2.93,0,0,0-.08.89v5.85a7.14,7.14,0,0,1-.45,2.71,4.83,4.83,0,0,1-2,2.31,6.15,6.15,0,0,1-3.24.83,6.28,6.28,0,0,1-2.36-.42,5.49,5.49,0,0,1-1.83-1.2,4.55,4.55,0,0,1-1.09-1.66,8,8,0,0,1-.31-2.57V79.85a3.49,3.49,0,0,0-.09-1,.6.6,0,0,0-.26-.34,1.65,1.65,0,0,0-.72-.1h-.65Z"/><rect class="cls-9" x="194.13" y="92.85" width="45.32" height="0.62"/><path class="cls-8" d="M177.65,91.39l-.05,0h-.06a.73.73,0,0,0-.72.65,3.86,3.86,0,0,1-1.45-.63.73.73,0,0,0,.24-.54.71.71,0,0,0-.71-.72.73.73,0,0,0-.52.22,3.68,3.68,0,0,1-.51-1.3.69.69,0,0,0,.25,0,.72.72,0,0,0,0-1.43.85.85,0,0,0-.23,0,3.58,3.58,0,0,1,.55-1.28.69.69,0,0,0,.41.13.71.71,0,0,0,.71-.72.74.74,0,0,0-.13-.41,3.73,3.73,0,0,1,1.42-.59.72.72,0,0,0,.71.63h0l.05,0v-.68l-6.5-3V92.18h6.5Z"/><polygon class="cls-8" points="184.98 81.62 184.98 92.18 191.63 92.18 191.63 78.51 184.98 81.62"/><polygon class="cls-8" points="170.68 81.53 164.14 78.51 164.14 92.18 170.68 92.18 170.68 81.53"/><rect class="cls-9" x="164.16" y="93.15" width="27.46" height="0.99"/><rect class="cls-9" x="164.16" y="95.56" width="27.46" height="0.99"/><path class="cls-8" d="M167.58,79.32a1.92,1.92,0,1,0-1.91-1.91A1.92,1.92,0,0,0,167.58,79.32Z"/><path class="cls-8" d="M181.12,82.15a1.75,1.75,0,1,0-1.75-1.74A1.74,1.74,0,0,0,181.12,82.15Z"/><path class="cls-8" d="M174.48,82.15a1.75,1.75,0,1,0-1.75-1.74A1.74,1.74,0,0,0,174.48,82.15Z"/><path class="cls-9" d="M179.86,91.83a4.32,4.32,0,0,0,1.19-.17,1.1,1.1,0,0,0,.63-.42l-1.2-3.55V85.75h-.62V85.6h.77v2.05l1.21,3.57v.06a1.16,1.16,0,0,1-.73.52,4.36,4.36,0,0,1-1.24.18ZM178,91.27a.72.72,0,0,0,.35.31,3.53,3.53,0,0,0,1.27.25h.2V92h-.2a3.38,3.38,0,0,1-1.33-.26.75.75,0,0,1-.44-.41v0l.69-2,0,0a1.36,1.36,0,0,0,.33-.51,1.53,1.53,0,0,0,.06-.61v0l.07-.23,0-2.16V85.6h.81v.15h-.66l0,2.11v0l-.08.22a1.62,1.62,0,0,1-.07.66,1.46,1.46,0,0,1-.35.56Z"/><path class="cls-7" d="M180.35,87.89l.71,3.43c.2.11.24.07.37,0Z"/><rect class="cls-10" x="180.16" y="85.92" width="0.14" height="1.53"/><path class="cls-8" d="M178.12,84.83v.34a.68.68,0,0,0,.15-.36,3.81,3.81,0,0,1,1.34.51.74.74,0,0,0-.29.36h1.23v.67a.76.76,0,0,0,.08-.11,3.58,3.58,0,0,1,.75,2.19,3.75,3.75,0,0,1-.19,1.11l.57,1.71c-.27.59-1.74.77-2.77.58a3.69,3.69,0,0,1-.74.21.75.75,0,0,0-.13-.35v.49h6.39V81.84Z"/><path class="cls-8" d="M179.07,88.09l.08-.23V87a2.09,2.09,0,0,0-1-.58v.75c.5.13.91.44.9.8a1.55,1.55,0,0,1-.58,1.42v.32l-.31.07v.64l.15-.06.38-1.1A1.43,1.43,0,0,0,179.07,88.09Z"/><path class="cls-8" d="M177.6,86.35a2.08,2.08,0,1,0,0,4.15h.05v-.6l-.1,0,0-.17-.61.07c-.14,0-.22,0-.22-.06l0-.23c-.09,0-.09-.08,0-.11h.11c.09,0,.06-.17,0-.17l-.25-.09-.06-.15c0-.1-.25,0-.06-.24l.23-.32a.14.14,0,0,0,0-.21l-.13-.07c-.1-.07,0-.26.05-.37a1.13,1.13,0,0,1,1.13-.67v-.76Z"/><path class="cls-9" d="M228,95.76v-.29h.08a.35.35,0,0,0,.18,0,.77.77,0,0,0,.19-.15l.17.17a1.05,1.05,0,0,1-.3.24.71.71,0,0,1-.32.07Zm0-.63v-.2h.2a.21.21,0,0,0,0-.12.13.13,0,0,0-.07-.06.17.17,0,0,0-.1,0h0v-.24h0a.85.85,0,0,1,.23,0,.59.59,0,0,1,.17.1.48.48,0,0,1,.12.16,1.18,1.18,0,0,1,.07.2v.15Zm1.34-.65v.18a.66.66,0,0,1,.17-.14.33.33,0,0,1,.14,0,.19.19,0,0,1,.1,0,.3.3,0,0,1,.08.08.2.2,0,0,1,0,.11.19.19,0,0,1-.05.14.17.17,0,0,1-.14.06h0l-.08,0h-.06a.29.29,0,0,0-.1,0v.47s0,.07,0,.08,0,0,0,0h.14v.24h-.75V95.5H229l0,0a.78.78,0,0,0,0-.09v-.56h-.18v-.23a1.32,1.32,0,0,0,.41-.11Zm-1.34,0v.24a.17.17,0,0,0-.1,0,.16.16,0,0,0-.07.07.28.28,0,0,0,0,.11H228v.2h-.23a.37.37,0,0,0,.09.26.25.25,0,0,0,.14.08v.29a.64.64,0,0,1-.47-.18.62.62,0,0,1-.19-.46.57.57,0,0,1,.08-.32.59.59,0,0,1,.24-.23.64.64,0,0,1,.34-.09Zm-8.28,1.28v-.29h.08a.35.35,0,0,0,.18,0,.62.62,0,0,0,.19-.15l.17.17a1.05,1.05,0,0,1-.3.24.71.71,0,0,1-.32.07Zm0-.63v-.2h.2a.21.21,0,0,0,0-.12.13.13,0,0,0-.07-.06.16.16,0,0,0-.09,0h0v-.24h0a.78.78,0,0,1,.22,0,.59.59,0,0,1,.17.1.67.67,0,0,1,.19.36s0,.08,0,.15Zm1.6-1.1h.84v.23h-.09l-.08,0,0,0a.22.22,0,0,0,0,.1V95a.84.84,0,0,0,0,.26.28.28,0,0,0,.28.17.37.37,0,0,0,.18,0,.33.33,0,0,0,.11-.13.73.73,0,0,0,0-.25v-.68a.15.15,0,0,0,0-.07l0,0h-.15V94h.71v.23h-.16a.1.1,0,0,0,0,0s0,0,0,.1v.67a.68.68,0,0,1-.06.31.53.53,0,0,1-.24.27.74.74,0,0,1-.38.09.88.88,0,0,1-.29,0,1,1,0,0,1-.22-.14.72.72,0,0,1-.13-.19,1.15,1.15,0,0,1,0-.3v-.66c0-.06,0-.1,0-.12l0,0-.09,0h-.08V94Zm2.45.45v.17a.72.72,0,0,1,.24-.13.65.65,0,0,1,.2,0,.46.46,0,0,1,.21,0,.4.4,0,0,1,.13.13.41.41,0,0,1,0,.21v.51a.78.78,0,0,0,0,.09l0,0h.15v.24h-.72V95.5h.09s0,0,0,0a.2.2,0,0,0,0-.09v-.45c0-.05,0-.09,0-.11a.1.1,0,0,0-.09,0l-.11,0a.79.79,0,0,0-.16.1v.48c0,.06,0,.09,0,.1a.14.14,0,0,0,.09,0h0v.24h-.71V95.5h.14s0,0,0,0a.17.17,0,0,0,0-.08v-.57h-.18v-.23a1.85,1.85,0,0,0,.42-.11Zm1.54-.54a.21.21,0,0,1,.22.22.23.23,0,0,1-.06.16.21.21,0,0,1-.16.07.2.2,0,0,1-.16-.07.24.24,0,0,1-.07-.16.26.26,0,0,1,.07-.16.25.25,0,0,1,.16-.06Zm.2.54v1l0,0h.15v.24h-.76V95.5h.15l0,0a.35.35,0,0,0,0-.06v-.59h-.19v-.23l.19,0,.16,0a.34.34,0,0,0,.11,0Zm1.08,0h.65v.24h-.09l0,0a.29.29,0,0,0,0,.08l-.4.88h-.33l-.42-.91a.1.1,0,0,0,0,0l0,0h-.09v-.24h.75v.24h-.12s0,0,0,0a.39.39,0,0,0,0,.06l.19.47.2-.47a.18.18,0,0,0,0-.06.05.05,0,0,0,0,0h-.15Zm-6.87,0v.24a.16.16,0,0,0-.09,0,.14.14,0,0,0-.08.07.28.28,0,0,0,0,.11h.21v.2h-.23a.37.37,0,0,0,.09.26.29.29,0,0,0,.14.08v.29a.66.66,0,0,1-.47-.18.62.62,0,0,1-.19-.46.66.66,0,0,1,.08-.32.59.59,0,0,1,.24-.23.64.64,0,0,1,.34-.09Zm-1.61,1.27v-.28h.09l.13-.07V95a.28.28,0,0,0,0-.11.16.16,0,0,0-.06-.08.19.19,0,0,0-.12,0h0v-.26h.06l.16.07v-.29h-.18V94a1.18,1.18,0,0,0,.25,0l.21-.06h.12v1.52s0,0,0,0h.15v.24h-.53v-.12l-.2.11Zm0-1.26v.26l-.09,0a.27.27,0,0,0-.09.12.65.65,0,0,0,0,.21.46.46,0,0,0,.08.27.17.17,0,0,0,.14.08v.28H218a.48.48,0,0,1-.26-.07.55.55,0,0,1-.19-.23.73.73,0,0,1-.08-.33.74.74,0,0,1,.08-.34.57.57,0,0,1,.2-.23.5.5,0,0,1,.27-.08Zm-3.25,1.23v-.23l.06,0,.12-.06V95.2l-.18,0V95l.18,0V94.9a.27.27,0,0,0,0-.11.12.12,0,0,0-.05-.05l-.08,0h0v-.24h0a.65.65,0,0,1,.29.06.31.31,0,0,1,.21.36v.44a1,1,0,0,0,0,.11l0,0h.06a.18.18,0,0,0,.09,0v.24a.71.71,0,0,1-.2,0,.53.53,0,0,1-.19,0,.35.35,0,0,1-.13-.11,1.12,1.12,0,0,1-.22.11Zm1.44-1.78v1.43s0,.08,0,.09,0,0,0,0h.14v.24h-.75V95.5h.14l0,0s0,0,0-.09V94.28h-.18V94a1.6,1.6,0,0,0,.45-.1Zm-1.44.54v.24h-.05l0,0-.05.08a.23.23,0,0,1-.07.11.23.23,0,0,1-.11,0,.14.14,0,0,1-.13,0,.13.13,0,0,1,0-.12.24.24,0,0,1,0-.14.38.38,0,0,1,.2-.14,1.1,1.1,0,0,1,.26-.06Zm0,.53v.22l-.05,0a.15.15,0,0,0-.09,0,.13.13,0,0,0,0,.08.11.11,0,0,0,0,.08.17.17,0,0,0,.1,0h0v.23a.65.65,0,0,1-.19,0,.43.43,0,0,1-.28-.1.34.34,0,0,1-.11-.25.28.28,0,0,1,0-.15.4.4,0,0,1,.11-.12,1.1,1.1,0,0,1,.23-.09l.2,0Zm-3.14.75V95.5a.23.23,0,0,0,.18-.09.45.45,0,0,0,.07-.28.43.43,0,0,0-.07-.28.21.21,0,0,0-.18-.1h0v-.27a.69.69,0,0,1,.36.09.56.56,0,0,1,.24.22.67.67,0,0,1,.08.33.64.64,0,0,1-.18.47.69.69,0,0,1-.5.17Zm1.41-1.28v.17a1,1,0,0,1,.24-.13.71.71,0,0,1,.2,0,.46.46,0,0,1,.21,0,.44.44,0,0,1,.14.13.56.56,0,0,1,0,.21v.51a.2.2,0,0,0,0,.09s0,0,0,0,0,0,.08,0h.06v.24h-.72V95.5h.1l0,0a.78.78,0,0,0,0-.09v-.45a.27.27,0,0,0,0-.11.11.11,0,0,0-.1,0l-.11,0-.16.1v.48a.16.16,0,0,0,0,.1l.08,0h0v.24h-.71V95.5h.14l0,0a.17.17,0,0,0,0-.08v-.57h-.18v-.23a1.91,1.91,0,0,0,.41-.11Zm-1.41,0v.27a.28.28,0,0,0-.13,0,.34.34,0,0,0-.1.13.56.56,0,0,0,0,.2.69.69,0,0,0,0,.22.27.27,0,0,0,.09.12.2.2,0,0,0,.13,0h0v.26a.77.77,0,0,1-.51-.17.63.63,0,0,1-.18-.47.58.58,0,0,1,.09-.33.52.52,0,0,1,.24-.22.68.68,0,0,1,.35-.09Zm-3.93,1.24v-.23l0,0a.34.34,0,0,0,.12-.06V95.2l-.17,0V95l.17,0V94.9a.31.31,0,0,0,0-.11l-.05-.05-.09,0h0v-.24h0a.58.58,0,0,1,.28.06.4.4,0,0,1,.17.13.46.46,0,0,1,0,.23v.44a.28.28,0,0,0,0,.11l0,0h.07a.18.18,0,0,0,.09,0v.24a.79.79,0,0,1-.2,0,.49.49,0,0,1-.19,0,.38.38,0,0,1-.14-.11.9.9,0,0,1-.22.11Zm2-.45.18.16a.91.91,0,0,1-.3.26.72.72,0,0,1-.33.07.68.68,0,0,1-.48-.18.62.62,0,0,1-.19-.45.63.63,0,0,1,.09-.33.56.56,0,0,1,.25-.23.69.69,0,0,1,.36-.09.65.65,0,0,1,.41.12.31.31,0,0,1,.16.25.18.18,0,0,1,0,.1.19.19,0,0,1-.08.07l-.11,0h-.08l-.06,0,0-.08c0-.05-.05-.09-.07-.1a.1.1,0,0,0-.05,0l-.07,0a.28.28,0,0,0-.12,0,.34.34,0,0,0-.1.13.54.54,0,0,0,0,.19.45.45,0,0,0,0,.2.3.3,0,0,0,.12.13.24.24,0,0,0,.16,0,.26.26,0,0,0,.17,0,.54.54,0,0,0,.19-.16Zm.72-1.33a.21.21,0,0,1,.22.22.23.23,0,0,1-.06.16.21.21,0,0,1-.16.07.2.2,0,0,1-.16-.07.24.24,0,0,1-.07-.16.26.26,0,0,1,.07-.16.25.25,0,0,1,.16-.06Zm.2.54v1l0,0h.15v.24h-.76V95.5h.15l0,0a.35.35,0,0,0,0-.06v-.59h-.19v-.23l.19,0,.16,0a.34.34,0,0,0,.11,0Zm-2.92,0v.24h-.05l-.06,0,0,.08a.24.24,0,0,1-.08.11.2.2,0,0,1-.11,0,.17.17,0,0,1-.18-.17.24.24,0,0,1,.05-.14.46.46,0,0,1,.21-.14,1,1,0,0,1,.26-.06Zm0,.53v.22l-.06,0a.19.19,0,0,0-.09,0,.13.13,0,0,0,0,.08.09.09,0,0,0,0,.08.15.15,0,0,0,.1,0h0v.23a.72.72,0,0,1-.19,0,.46.46,0,0,1-.29-.1.33.33,0,0,1-.1-.25.4.4,0,0,1,0-.15.68.68,0,0,1,.12-.12,1,1,0,0,1,.22-.09l.21,0Zm-4.15.75V95.5a.23.23,0,0,0,.18-.09.44.44,0,0,0,.08-.28.5.5,0,0,0-.07-.28.22.22,0,0,0-.19-.1h0v-.27a.69.69,0,0,1,.36.09.47.47,0,0,1,.24.22.58.58,0,0,1,.09.33.65.65,0,0,1-.19.47.68.68,0,0,1-.5.17ZM205.38,94h.69l.5,1v-.61s0-.08,0-.09a.09.09,0,0,0,0,0h-.16V94h.7v.23H207a.15.15,0,0,0-.08,0s0,0,0,0a.25.25,0,0,0,0,.1v1.33h-.36l-.63-1.26v.88s0,.08,0,.09,0,0,0,0h.17v.24h-.71V95.5h.15a.08.08,0,0,0,0,0s0,0,0-.07v-1a.22.22,0,0,0,0-.09l0,0h-.16Zm-1.73.45v.27a.28.28,0,0,0-.13,0,.25.25,0,0,0-.09.13.4.4,0,0,0,0,.2.48.48,0,0,0,0,.22.27.27,0,0,0,.09.12.2.2,0,0,0,.13,0h0v.26a.72.72,0,0,1-.5-.17.63.63,0,0,1-.18-.47.58.58,0,0,1,.08-.33.52.52,0,0,1,.24-.22.69.69,0,0,1,.36-.09Zm-1.79,1.72v-.29a.16.16,0,0,1,.09,0l.09,0a.47.47,0,0,1,.11.1.09.09,0,0,0,.07,0,.07.07,0,0,0,.06,0s0-.06,0-.12V94.82h-.18v-.23a.88.88,0,0,0,.24,0,1,1,0,0,0,.22-.08h.11v1.31a.54.54,0,0,1-.05.28.4.4,0,0,1-.18.16.65.65,0,0,1-.29.07.67.67,0,0,1-.22,0l-.09-.06Zm0-.67.08-.08-.08-.08v.16Zm0-.4h0V95a.84.84,0,0,0,0-.17v.32Zm.64-1.19a.2.2,0,0,1,.15.06.21.21,0,0,1,.07.16.2.2,0,0,1-.07.16.21.21,0,0,1-.15.07.22.22,0,0,1-.16-.07.24.24,0,0,1-.07-.16.26.26,0,0,1,.07-.16A.21.21,0,0,1,202.5,93.94Zm-.64.87v.32h-.54v-.2h.2a.21.21,0,0,0,0-.12.13.13,0,0,0-.07-.06.17.17,0,0,0-.1,0h0v-.24h0a.85.85,0,0,1,.23,0,.59.59,0,0,1,.17.1.48.48,0,0,1,.12.16l0,0Zm0,.56v.16a1,1,0,0,1-.22.16.71.71,0,0,1-.32.07h0v-.29h.08a.35.35,0,0,0,.18,0,.77.77,0,0,0,.19-.15l.09.09Zm0,.54v.29l0,0a.19.19,0,0,1,0-.12.14.14,0,0,1,.05-.11Zm-.54-1.43v.24a.17.17,0,0,0-.1,0,.16.16,0,0,0-.07.07.28.28,0,0,0,0,.11h.21v.2h-.23a.37.37,0,0,0,.09.26.25.25,0,0,0,.14.08v.29a.64.64,0,0,1-.47-.18.62.62,0,0,1-.19-.46.57.57,0,0,1,.08-.32.59.59,0,0,1,.24-.23.64.64,0,0,1,.34-.09Zm-4.54,1.28V95.5a.23.23,0,0,0,.18-.09.45.45,0,0,0,.07-.28.43.43,0,0,0-.07-.28.21.21,0,0,0-.18-.1h0v-.27a.71.71,0,0,1,.36.09.56.56,0,0,1,.24.22.67.67,0,0,1,.08.33.64.64,0,0,1-.18.47.69.69,0,0,1-.5.17Zm1.41-1.28v.17a.83.83,0,0,1,.24-.13.71.71,0,0,1,.2,0,.46.46,0,0,1,.21,0,.32.32,0,0,1,.13.13.41.41,0,0,1,.05.21v.51a.2.2,0,0,0,0,.09,0,0,0,0,0,0,0h.15v.24h-.72V95.5h.1l0,0a.78.78,0,0,0,0-.09v-.45a.27.27,0,0,0,0-.11.11.11,0,0,0-.1,0l-.11,0-.16.1v.48a.16.16,0,0,0,0,.1l.08,0h0v.24h-.71V95.5h.14l0,0s0,0,0-.08v-.57h-.18v-.23a1.91,1.91,0,0,0,.41-.11Zm2,0h.16l.1.34-.24.1a.44.44,0,0,0-.16-.17.39.39,0,0,0-.2-.06l-.1,0s0,0,0,.05a.08.08,0,0,0,0,0,.3.3,0,0,0,.1,0l.34.12.17.08a.43.43,0,0,1,.12.11.31.31,0,0,1,0,.17.32.32,0,0,1-.13.27.57.57,0,0,1-.37.12.58.58,0,0,1-.33-.09l0,.07h-.16l-.15-.41.23-.09a.63.63,0,0,0,.22.21.46.46,0,0,0,.23.08.2.2,0,0,0,.11,0s0,0,0-.06a.05.05,0,0,0,0,0,.33.33,0,0,0-.12-.06l-.26-.09a.79.79,0,0,1-.3-.17.28.28,0,0,1-.08-.21.34.34,0,0,1,.12-.26.53.53,0,0,1,.35-.12.52.52,0,0,1,.31.09ZM195.56,94h.17l.17.61-.23.07a1.34,1.34,0,0,0-.21-.31.45.45,0,0,0-.31-.13.36.36,0,0,0-.22.07.38.38,0,0,0-.16.19.82.82,0,0,0,.07.75.44.44,0,0,0,.37.19.45.45,0,0,0,.27-.08.83.83,0,0,0,.29-.27l.19.14a1.26,1.26,0,0,1-.34.35,1,1,0,0,1-.52.15.8.8,0,0,1-.44-.11.86.86,0,0,1-.31-.32.93.93,0,0,1-.12-.46,1,1,0,0,1,.11-.45.84.84,0,0,1,.75-.42.88.88,0,0,1,.43.1l0-.07Zm1.22.45v.27a.28.28,0,0,0-.13,0,.27.27,0,0,0-.1.13.56.56,0,0,0,0,.2.69.69,0,0,0,0,.22.27.27,0,0,0,.09.12.2.2,0,0,0,.13,0h0v.26a.77.77,0,0,1-.51-.17.63.63,0,0,1-.18-.47.67.67,0,0,1,.08-.33.64.64,0,0,1,.24-.22.74.74,0,0,1,.36-.09Z"/><path class="cls-9" d="M237.49,95.76v-.29h.08a.33.33,0,0,0,.18,0,.62.62,0,0,0,.19-.15l.17.17a1.05,1.05,0,0,1-.3.24.68.68,0,0,1-.32.07Zm0-.63v-.2h.21a.34.34,0,0,0,0-.12.13.13,0,0,0-.07-.06.16.16,0,0,0-.09,0h0v-.24h0a.78.78,0,0,1,.22,0,.48.48,0,0,1,.17.1.51.51,0,0,1,.13.16.66.66,0,0,1,.06.2s0,.08,0,.15Zm1.63-.62h.16l.1.34-.23.1a.55.55,0,0,0-.17-.17.39.39,0,0,0-.2-.06l-.09,0s0,0,0,.05a.05.05,0,0,0,0,0s0,0,.09,0l.34.12.17.08a.43.43,0,0,1,.12.11.31.31,0,0,1,0,.17.34.34,0,0,1-.12.27.6.6,0,0,1-.38.12.63.63,0,0,1-.33-.09l0,.07h-.17l-.15-.41.23-.09a.63.63,0,0,0,.22.21.46.46,0,0,0,.23.08.18.18,0,0,0,.11,0,.07.07,0,0,0,0-.06.05.05,0,0,0,0,0,.33.33,0,0,0-.12-.06l-.26-.09a.79.79,0,0,1-.3-.17.32.32,0,0,1-.08-.21.34.34,0,0,1,.12-.26.53.53,0,0,1,.35-.12.57.57,0,0,1,.32.09Zm-1.63,0v.24a.16.16,0,0,0-.09,0,.14.14,0,0,0-.08.07.28.28,0,0,0,0,.11h.21v.2h-.23a.37.37,0,0,0,.09.26.29.29,0,0,0,.14.08v.29a.66.66,0,0,1-.47-.18.62.62,0,0,1-.19-.46.66.66,0,0,1,.08-.32.59.59,0,0,1,.24-.23.64.64,0,0,1,.34-.09Zm-1.61,1.27v-.28H236l.13-.07V95a.28.28,0,0,0,0-.11.16.16,0,0,0-.06-.08.19.19,0,0,0-.12,0h0v-.26H236l.15.07v-.29h-.17V94a1.19,1.19,0,0,0,.24,0,1,1,0,0,0,.21-.06h.12v1.52s0,0,0,0h.15v.24h-.53v-.12l-.2.11Zm0-1.26v.26l-.09,0a.27.27,0,0,0-.09.12.66.66,0,0,0,0,.21.45.45,0,0,0,.07.27.19.19,0,0,0,.14.08v.28h-.11a.48.48,0,0,1-.26-.07.55.55,0,0,1-.19-.23.73.73,0,0,1-.08-.33.74.74,0,0,1,.08-.34.57.57,0,0,1,.2-.23.51.51,0,0,1,.28-.08Zm-1.54,1.23v-.23l0,0a.34.34,0,0,0,.12-.06V95.2l-.17,0V95l.17,0V94.9a.31.31,0,0,0,0-.11s0,0-.05-.05l-.09,0h0v-.24h0a.65.65,0,0,1,.29.06.36.36,0,0,1,.16.13.46.46,0,0,1,0,.23v.44a.28.28,0,0,0,0,.11l0,0H235a.18.18,0,0,0,.09,0v.24a.79.79,0,0,1-.2,0,.49.49,0,0,1-.19,0,.38.38,0,0,1-.14-.11.9.9,0,0,1-.22.11Zm0-1.24v.24h-.05l0,0s0,0-.05.08a.24.24,0,0,1-.08.11.2.2,0,0,1-.11,0,.17.17,0,0,1-.18-.17.2.2,0,0,1,.06-.14.38.38,0,0,1,.2-.14,1,1,0,0,1,.26-.06Zm0,.53v.22l-.05,0a.19.19,0,0,0-.1,0,.13.13,0,0,0,0,.08.09.09,0,0,0,0,.08.15.15,0,0,0,.1,0h0v.23a.72.72,0,0,1-.19,0,.41.41,0,0,1-.28-.1.31.31,0,0,1-.11-.25.4.4,0,0,1,0-.15.68.68,0,0,1,.12-.12.91.91,0,0,1,.23-.09l.2,0Zm-1.52.74v-.28h.09l.13-.07V95a.28.28,0,0,0,0-.11.16.16,0,0,0-.06-.08.19.19,0,0,0-.12,0h0v-.26h.06l.16.07v-.29h-.18V94a1.18,1.18,0,0,0,.25,0l.21-.06h.12v1.52s0,0,0,0h.15v.24h-.53v-.12l-.2.11Zm-2-1.24H231l.1.34-.23.1a.55.55,0,0,0-.17-.17.36.36,0,0,0-.2-.06l-.09,0s0,0,0,.05,0,0,0,0,0,0,.09,0l.34.12.17.08a.32.32,0,0,1,.12.11.31.31,0,0,1,0,.17.34.34,0,0,1-.12.27.6.6,0,0,1-.38.12.63.63,0,0,1-.33-.09l0,.07h-.17l-.15-.41.23-.09a.63.63,0,0,0,.22.21.46.46,0,0,0,.23.08.18.18,0,0,0,.11,0,.07.07,0,0,0,0-.06.05.05,0,0,0,0,0,.33.33,0,0,0-.12-.06l-.26-.09a.79.79,0,0,1-.3-.17.32.32,0,0,1-.08-.21.32.32,0,0,1,.13-.26.49.49,0,0,1,.34-.12.55.55,0,0,1,.32.09l0-.06Zm2,0v.26l-.09,0a.27.27,0,0,0-.09.12.65.65,0,0,0,0,.21.46.46,0,0,0,.08.27.17.17,0,0,0,.14.08v.28h-.11a.48.48,0,0,1-.26-.07.55.55,0,0,1-.19-.23.73.73,0,0,1-.08-.33.74.74,0,0,1,.08-.34.57.57,0,0,1,.2-.23.5.5,0,0,1,.27-.08Zm-1.18-.55a.21.21,0,0,1,.22.22.23.23,0,0,1-.06.16.21.21,0,0,1-.16.07.2.2,0,0,1-.16-.07.23.23,0,0,1-.06-.16.21.21,0,0,1,.22-.22Zm.2.54v.91s0,.07,0,.08a0,0,0,0,0,0,0H232v.24h-.75V95.5h.14l0,0a.35.35,0,0,0,0-.06v-.59h-.18v-.23l.18,0,.16,0a.34.34,0,0,0,.11,0Z"/><path class="cls-11" d="M126.54,197.52l.65,2.51-1,.29a3.67,3.67,0,0,0-1.13-1.32,2.38,2.38,0,0,0-1.34-.42,1.22,1.22,0,0,0-.73.19.51.51,0,0,0-.27.42.65.65,0,0,0,.25.49,2.08,2.08,0,0,0,.86.4l1.44.42a3.6,3.6,0,0,1,1.71.91,2,2,0,0,1,.51,1.34,2.1,2.1,0,0,1-.78,1.65,3.19,3.19,0,0,1-2.15.74,3.78,3.78,0,0,1-1.09-.15,4.39,4.39,0,0,1-1-.52l-.24.54h-.8l-.53-2.91,1-.24a3.54,3.54,0,0,0,1.11,1.48,2.58,2.58,0,0,0,1.64.6,1.84,1.84,0,0,0,.67-.11.8.8,0,0,0,.4-.28.64.64,0,0,0,.14-.38.69.69,0,0,0-.31-.55,4,4,0,0,0-1.11-.46l-1.25-.36a6.09,6.09,0,0,1-.77-.3,2.78,2.78,0,0,1-.75-.47,1.9,1.9,0,0,1-.43-.62,1.83,1.83,0,0,1-.17-.8,2,2,0,0,1,.33-1.1,2.39,2.39,0,0,1,1-.81,3.37,3.37,0,0,1,1.47-.31,3.19,3.19,0,0,1,1.75.5l.21-.37Z"/><path class="cls-11" d="M130.67,199.52v4a.81.81,0,0,0,0,.35.18.18,0,0,0,.11.1,1.41,1.41,0,0,0,.37,0h.29v1h-3.32v-1h.29a1.32,1.32,0,0,0,.36,0,.18.18,0,0,0,.11-.1.53.53,0,0,0,0-.27V201h-.8v-1a5.28,5.28,0,0,0,.82-.09,5.05,5.05,0,0,0,.69-.16,3.8,3.8,0,0,0,.49-.22Zm-.87-2.39a.94.94,0,0,1,.7.28,1,1,0,0,1,0,1.4,1,1,0,0,1-1.68-.7.93.93,0,0,1,.3-.69A.9.9,0,0,1,129.8,197.13Z"/><path class="cls-11" d="M135.75,199.65h.71l.43,1.49-1,.41a2.31,2.31,0,0,0-.73-.73,1.64,1.64,0,0,0-.87-.27.69.69,0,0,0-.42.1.28.28,0,0,0-.14.23.26.26,0,0,0,.1.21,1.17,1.17,0,0,0,.41.2l1.48.53a4.26,4.26,0,0,1,.75.35,1.48,1.48,0,0,1,.54.51,1.36,1.36,0,0,1,.18.71,1.5,1.5,0,0,1-.56,1.2,2.44,2.44,0,0,1-1.63.55,2.53,2.53,0,0,1-1.46-.42l-.15.29h-.72l-.66-1.76,1-.43a2.82,2.82,0,0,0,.94.94,2.05,2.05,0,0,0,1,.34.86.86,0,0,0,.49-.14.3.3,0,0,0,.15-.25.35.35,0,0,0-.12-.24,1.9,1.9,0,0,0-.52-.25l-1.16-.4a3.4,3.4,0,0,1-1.31-.72,1.32,1.32,0,0,1-.34-.91,1.45,1.45,0,0,1,.54-1.14,2.27,2.27,0,0,1,1.52-.53,2.51,2.51,0,0,1,1.39.37Z"/><path class="cls-11" d="M140.24,197.81v1.84H142v1.14h-1.73v1.87a3.16,3.16,0,0,0,.07.82.57.57,0,0,0,.25.28,1,1,0,0,0,.55.15,2,2,0,0,0,1.11-.36v1.15a4.49,4.49,0,0,1-.85.31,3.55,3.55,0,0,1-.82.09,2.91,2.91,0,0,1-.88-.13,1.75,1.75,0,0,1-.66-.36,1.3,1.3,0,0,1-.37-.5,2.11,2.11,0,0,1-.11-.76v-2.56h-.8v-1a2,2,0,0,0,.73-.4,1.85,1.85,0,0,0,.49-.62,2.85,2.85,0,0,0,.26-.93Z"/><path class="cls-11" d="M147.75,203l.73.74a4,4,0,0,1-1.29,1.05,3.12,3.12,0,0,1-1.42.33,2.84,2.84,0,0,1-2.06-.83,2.71,2.71,0,0,1-.84-2,2.76,2.76,0,0,1,.38-1.41,2.66,2.66,0,0,1,1-1,3.12,3.12,0,0,1,1.51-.36,2.8,2.8,0,0,1,1,.16,2.34,2.34,0,0,1,.77.44,2.44,2.44,0,0,1,.53.7,3.31,3.31,0,0,1,.27.86,3.81,3.81,0,0,1,0,.69h-3.62a1.62,1.62,0,0,0,.4,1.11,1.25,1.25,0,0,0,1,.42,1.66,1.66,0,0,0,.79-.22A3,3,0,0,0,147.75,203Zm-1.08-1.55a1.18,1.18,0,0,0-.15-.51.86.86,0,0,0-.31-.29.78.78,0,0,0-.42-.11,1,1,0,0,0-.43.11,1,1,0,0,0-.34.31,1.13,1.13,0,0,0-.16.49Z"/><path class="cls-11" d="M151.72,199.52v.72a3.5,3.5,0,0,1,.95-.54,2.78,2.78,0,0,1,1-.18,2.1,2.1,0,0,1,.61.09,1.87,1.87,0,0,1,.49.25,1.43,1.43,0,0,1,.35.41,3.56,3.56,0,0,1,1-.57,2.73,2.73,0,0,1,1-.18,1.78,1.78,0,0,1,.78.16,1.51,1.51,0,0,1,.57.42,1.36,1.36,0,0,1,.28.58,2.61,2.61,0,0,1,0,.56v2.22a1.2,1.2,0,0,0,0,.36.33.33,0,0,0,.14.12,1.45,1.45,0,0,0,.39,0h.24v1h-3.13v-1a1.79,1.79,0,0,0,.43,0,.26.26,0,0,0,.14-.11,1.17,1.17,0,0,0,0-.35v-1.95a1.44,1.44,0,0,0-.05-.45.5.5,0,0,0-.17-.19.66.66,0,0,0-.32-.07,1.29,1.29,0,0,0-.45.09,4.32,4.32,0,0,0-.72.41v2.11a1.09,1.09,0,0,0,0,.39.31.31,0,0,0,.15.12,1.57,1.57,0,0,0,.42,0v1H153v-1a1.78,1.78,0,0,0,.44,0,.23.23,0,0,0,.12-.12,1,1,0,0,0,.05-.39v-1.84a1.42,1.42,0,0,0-.08-.57.46.46,0,0,0-.42-.2l-.32,0a2.19,2.19,0,0,0-.33.12l-.44.28-.12.08v2.1a1.31,1.31,0,0,0,0,.37.32.32,0,0,0,.13.13.82.82,0,0,0,.32,0h.15v1h-3.14v-1h.21a1.74,1.74,0,0,0,.42,0,.28.28,0,0,0,.12-.12,1,1,0,0,0,.05-.39V201h-.8v-1a5.94,5.94,0,0,0,1.82-.46Z"/><path class="cls-11" d="M163.52,201.76v-.4a1.38,1.38,0,0,0-.06-.49.52.52,0,0,0-.22-.22.74.74,0,0,0-.38-.09.88.88,0,0,0-.33.06.76.76,0,0,0-.23.15,1.69,1.69,0,0,0-.2.36,1.14,1.14,0,0,1-.34.48.87.87,0,0,1-.48.14.78.78,0,0,1-.56-.21.72.72,0,0,1-.22-.54,1,1,0,0,1,.22-.64,2.22,2.22,0,0,1,.9-.6,3.59,3.59,0,0,1,1.34-.24,3,3,0,0,1,1.27.24,1.59,1.59,0,0,1,.73.58,2,2,0,0,1,.21,1v1.93a1.45,1.45,0,0,0,0,.45.33.33,0,0,0,.16.17.43.43,0,0,0,.27.08,1.33,1.33,0,0,0,.41-.09v1a2.85,2.85,0,0,1-.88.15,2.1,2.1,0,0,1-.84-.16,1.54,1.54,0,0,1-.59-.49,4.74,4.74,0,0,1-1,.5,2.63,2.63,0,0,1-.85.15,1.77,1.77,0,0,1-1.24-.44,1.38,1.38,0,0,1-.47-1.06,1.34,1.34,0,0,1,.16-.66,1.53,1.53,0,0,1,.49-.53,3.33,3.33,0,0,1,1-.4A9.31,9.31,0,0,1,163.52,201.76Zm0,.89a6,6,0,0,0-1,.21.94.94,0,0,0-.41.26.56.56,0,0,0-.12.33.46.46,0,0,0,.16.36.63.63,0,0,0,.43.14,1.13,1.13,0,0,0,.41-.09,3.33,3.33,0,0,0,.53-.27Z"/><path class="cls-11" d="M176,197.13v6.24a1.82,1.82,0,0,0,0,.45.25.25,0,0,0,.11.12,1.58,1.58,0,0,0,.41,0h.25v1l-2.33.08v-.55a4.32,4.32,0,0,1-.89.47,2.21,2.21,0,0,1-.76.13,2,2,0,0,1-1.13-.34,2.39,2.39,0,0,1-.85-1,3.24,3.24,0,0,1-.33-1.47,3.28,3.28,0,0,1,.33-1.48,2.54,2.54,0,0,1,.88-1,2.19,2.19,0,0,1,1.21-.34,2.84,2.84,0,0,1,.66.08,3.28,3.28,0,0,1,.69.3v-1.28h-.78v-1a9.09,9.09,0,0,0,1.08-.16,8.43,8.43,0,0,0,.9-.29Zm-1.72,6.34v-1.79a1.68,1.68,0,0,0-.05-.48.64.64,0,0,0-.29-.35.9.9,0,0,0-.51-.15,1,1,0,0,0-.54.17,1.26,1.26,0,0,0-.39.54,2.33,2.33,0,0,0-.15.89,2,2,0,0,0,.33,1.2.8.8,0,0,0,.68.36.87.87,0,0,0,.35-.07A3.08,3.08,0,0,0,174.24,203.47Z"/><path class="cls-11" d="M182.29,203l.73.74a4,4,0,0,1-1.29,1.05,3.12,3.12,0,0,1-1.42.33,2.84,2.84,0,0,1-2.06-.83,2.71,2.71,0,0,1-.84-2,2.76,2.76,0,0,1,.38-1.41,2.73,2.73,0,0,1,1-1,3.12,3.12,0,0,1,1.51-.36,2.8,2.8,0,0,1,1,.16,2.34,2.34,0,0,1,.77.44,2.44,2.44,0,0,1,.53.7,3.33,3.33,0,0,1,.28.86,5.51,5.51,0,0,1,0,.69h-3.62a1.62,1.62,0,0,0,.4,1.11,1.26,1.26,0,0,0,1,.42,1.66,1.66,0,0,0,.78-.22A3,3,0,0,0,182.29,203Zm-1.08-1.55a1.18,1.18,0,0,0-.15-.51.86.86,0,0,0-.31-.29.77.77,0,0,0-.41-.11,1,1,0,0,0-.44.11,1,1,0,0,0-.34.31,1.13,1.13,0,0,0-.16.49Z"/><path class="cls-11" d="M192,201h3.66v1.05h-.27a1,1,0,0,0-.37.05.28.28,0,0,0-.15.15,1.17,1.17,0,0,0-.05.4V205h-1.1l-.28-.54a3.92,3.92,0,0,1-2.18.67,3.6,3.6,0,0,1-1.86-.5,3.54,3.54,0,0,1-1.34-1.4,4,4,0,0,1-.49-2,3.92,3.92,0,0,1,.49-2,3.55,3.55,0,0,1,1.35-1.37,3.83,3.83,0,0,1,1.9-.5,3.67,3.67,0,0,1,1,.13,3,3,0,0,1,.84.33l.2-.33H194l.68,2.48-1,.32a7.06,7.06,0,0,0-.8-1.11,2.06,2.06,0,0,0-.67-.46,1.85,1.85,0,0,0-.74-.17,1.65,1.65,0,0,0-1,.3,1.89,1.89,0,0,0-.7.86,3.31,3.31,0,0,0-.26,1.37,3.85,3.85,0,0,0,.28,1.54,2.24,2.24,0,0,0,.74,1,1.72,1.72,0,0,0,1,.32,1.86,1.86,0,0,0,.74-.16,1,1,0,0,0,.47-.35.89.89,0,0,0,.13-.52v-.27a.9.9,0,0,0,0-.36.34.34,0,0,0-.15-.16,1.1,1.1,0,0,0-.39-.05H192Z"/><path class="cls-11" d="M201,203l.73.74a4,4,0,0,1-1.29,1.05,3.12,3.12,0,0,1-1.42.33,2.82,2.82,0,0,1-2.06-.83,2.71,2.71,0,0,1-.84-2,2.69,2.69,0,0,1,1.42-2.42,3.09,3.09,0,0,1,1.51-.36,2.74,2.74,0,0,1,1,.16,2.25,2.25,0,0,1,.77.44,2.48,2.48,0,0,1,.54.7,3.31,3.31,0,0,1,.27.86,5.51,5.51,0,0,1,0,.69H198a1.62,1.62,0,0,0,.4,1.11,1.25,1.25,0,0,0,1,.42,1.69,1.69,0,0,0,.79-.22A3,3,0,0,0,201,203Zm-1.08-1.55a1.34,1.34,0,0,0-.15-.51.86.86,0,0,0-.31-.29.8.8,0,0,0-.42-.11,1,1,0,0,0-.43.11.93.93,0,0,0-.34.31,1.13,1.13,0,0,0-.16.49Z"/><path class="cls-11" d="M206.15,199.65h.71l.43,1.49-1,.41a2.31,2.31,0,0,0-.73-.73,1.64,1.64,0,0,0-.87-.27.69.69,0,0,0-.42.1.26.26,0,0,0-.14.23.26.26,0,0,0,.1.21,1.17,1.17,0,0,0,.41.2l1.47.53a4,4,0,0,1,.76.35,1.48,1.48,0,0,1,.54.51,1.36,1.36,0,0,1,.18.71,1.5,1.5,0,0,1-.56,1.2,2.45,2.45,0,0,1-1.64.55,2.58,2.58,0,0,1-1.46-.42l-.15.29h-.71l-.66-1.76,1-.43a3,3,0,0,0,.94.94,2.11,2.11,0,0,0,1,.34.86.86,0,0,0,.49-.14.3.3,0,0,0,.15-.25.35.35,0,0,0-.12-.24,1.9,1.9,0,0,0-.52-.25l-1.16-.4a3.4,3.4,0,0,1-1.31-.72,1.33,1.33,0,0,1-.35-.91,1.46,1.46,0,0,1,.55-1.14,2.27,2.27,0,0,1,1.52-.53,2.45,2.45,0,0,1,1.38.37Z"/><path class="cls-11" d="M210.64,197.81v1.84h1.73v1.14h-1.73v1.87a3.16,3.16,0,0,0,.07.82.57.57,0,0,0,.25.28,1,1,0,0,0,.55.15,2,2,0,0,0,1.11-.36v1.15a4.49,4.49,0,0,1-.85.31,3.55,3.55,0,0,1-.82.09,2.91,2.91,0,0,1-.88-.13,1.75,1.75,0,0,1-.66-.36,1.21,1.21,0,0,1-.37-.5,1.91,1.91,0,0,1-.11-.76v-2.56h-.81v-1a2,2,0,0,0,.74-.4,2,2,0,0,0,.49-.62,2.85,2.85,0,0,0,.26-.93Z"/><path class="cls-11" d="M215.81,199.52v4a1.14,1.14,0,0,0,0,.35.2.2,0,0,0,.12.1,1.36,1.36,0,0,0,.37,0h.29v1H213.3v-1h.29a1.23,1.23,0,0,0,.35,0,.2.2,0,0,0,.12-.1.68.68,0,0,0,0-.27V201h-.8v-1a5.41,5.41,0,0,0,.82-.09,5.05,5.05,0,0,0,.69-.16,4.52,4.52,0,0,0,.49-.22Zm-.87-2.39a1,1,0,0,1,0,2,1,1,0,0,1-.7-.29.94.94,0,0,1-.28-.7.92.92,0,0,1,.29-.69A.94.94,0,0,1,214.94,197.13Z"/><path class="cls-11" d="M220.23,199.52a3.37,3.37,0,0,1,1.6.36,2.56,2.56,0,0,1,1,1,2.77,2.77,0,0,1,.37,1.45,2.71,2.71,0,0,1-.82,2.05,3.46,3.46,0,0,1-4.39,0,2.67,2.67,0,0,1-.8-2,2.81,2.81,0,0,1,.37-1.45,2.6,2.6,0,0,1,1-1A3.22,3.22,0,0,1,220.23,199.52Zm-1.19-.58-.22-.54,1.16-1a1.42,1.42,0,0,1,.92-.44.7.7,0,0,1,.54.23.78.78,0,0,1,.23.57.76.76,0,0,1-.19.49,1.24,1.24,0,0,1-.69.35Zm1.21,1.76a1,1,0,0,0-.57.18,1.16,1.16,0,0,0-.42.54,2.28,2.28,0,0,0-.15.9,2.44,2.44,0,0,0,.15.93,1.18,1.18,0,0,0,.4.55,1,1,0,0,0,.56.18,1,1,0,0,0,.81-.4,1.87,1.87,0,0,0,.34-1.24,2,2,0,0,0-.32-1.23A.93.93,0,0,0,220.25,200.7Z"/><path class="cls-11" d="M226.45,199.52v.72a4.43,4.43,0,0,1,1-.57,2.67,2.67,0,0,1,.88-.15,1.82,1.82,0,0,1,.92.22,1.5,1.5,0,0,1,.59.55,2,2,0,0,1,.18.94v2.23a1,1,0,0,0,0,.37.3.3,0,0,0,.13.12,1.49,1.49,0,0,0,.38,0h.27v1h-3.16v-1h.41a.26.26,0,0,0,.17-.13.9.9,0,0,0,0-.37v-2a1,1,0,0,0-.08-.5.48.48,0,0,0-.41-.18,1.35,1.35,0,0,0-.5.1,3.51,3.51,0,0,0-.71.42v2.12a.71.71,0,0,0,.08.43c.05.06.17.08.36.08h.18v1h-3.12v-1h.15a2,2,0,0,0,.46,0,.26.26,0,0,0,.14-.11.76.76,0,0,0,0-.32V201h-.79v-1a7,7,0,0,0,1.8-.46Z"/><path class="cls-11" d="M240.86,197.13v6.24a1.82,1.82,0,0,0,0,.45.25.25,0,0,0,.11.12,1.58,1.58,0,0,0,.41,0h.25v1l-2.33.08v-.55a4.32,4.32,0,0,1-.89.47,2.25,2.25,0,0,1-.76.13,2,2,0,0,1-1.14-.34,2.44,2.44,0,0,1-.84-1,3.24,3.24,0,0,1-.33-1.47,3.28,3.28,0,0,1,.33-1.48,2.54,2.54,0,0,1,.88-1,2.19,2.19,0,0,1,1.21-.34,2.84,2.84,0,0,1,.66.08,3.28,3.28,0,0,1,.69.3v-1.28h-.78v-1a6,6,0,0,0,2-.45Zm-1.72,6.34v-1.79a1.68,1.68,0,0,0,0-.48.64.64,0,0,0-.29-.35.92.92,0,0,0-.51-.15,1,1,0,0,0-.54.17,1.26,1.26,0,0,0-.39.54,2.33,2.33,0,0,0-.15.89,2,2,0,0,0,.33,1.2.78.78,0,0,0,.67.36.81.81,0,0,0,.35-.07A3.06,3.06,0,0,0,239.14,203.47Z"/><path class="cls-11" d="M247.19,203l.73.74a4,4,0,0,1-1.29,1.05,3.12,3.12,0,0,1-1.42.33,2.84,2.84,0,0,1-2.06-.83,2.71,2.71,0,0,1-.84-2,2.76,2.76,0,0,1,.38-1.41,2.73,2.73,0,0,1,1-1,3.12,3.12,0,0,1,1.51-.36,2.8,2.8,0,0,1,1,.16,2.34,2.34,0,0,1,.77.44,2.44,2.44,0,0,1,.53.7,3,3,0,0,1,.27.86,3.81,3.81,0,0,1,0,.69h-3.62a1.62,1.62,0,0,0,.4,1.11,1.26,1.26,0,0,0,1,.42,1.66,1.66,0,0,0,.78-.22A3,3,0,0,0,247.19,203Zm-1.08-1.55A1.18,1.18,0,0,0,246,201a.86.86,0,0,0-.31-.29.77.77,0,0,0-.41-.11,1,1,0,0,0-.44.11,1,1,0,0,0-.34.31,1.13,1.13,0,0,0-.16.49Z"/><path class="cls-11" d="M255.17,197.52h1.68l2.25,5.78a1.34,1.34,0,0,0,.33.57.85.85,0,0,0,.52.1v1h-3.54v-1h.21a.79.79,0,0,0,.41-.08.22.22,0,0,0,.12-.19,1.55,1.55,0,0,0-.1-.4l-.22-.68h-2.28l-.28.76a1.19,1.19,0,0,0-.09.31.25.25,0,0,0,.06.16.34.34,0,0,0,.2.1,2.73,2.73,0,0,0,.51,0v1h-2.9v-1a1.39,1.39,0,0,0,.41,0,.8.8,0,0,0,.21-.15,1.16,1.16,0,0,0,.18-.36Zm-.23,4h1.49l-.72-2.06Z"/><path class="cls-11" d="M265.27,203l.79.69a4.15,4.15,0,0,1-1.31,1.12,3.24,3.24,0,0,1-1.46.35,2.9,2.9,0,0,1-2.09-.81,2.67,2.67,0,0,1-.83-2,2.75,2.75,0,0,1,.39-1.44,2.63,2.63,0,0,1,1.07-1,3.23,3.23,0,0,1,1.6-.37,3,3,0,0,1,1.81.51,1.41,1.41,0,0,1,.7,1.09.89.89,0,0,1-.11.43.79.79,0,0,1-.34.31,1,1,0,0,1-.47.12.87.87,0,0,1-.37-.08,1,1,0,0,1-.27-.21,3.05,3.05,0,0,1-.19-.33,2.38,2.38,0,0,0-.27-.46.58.58,0,0,0-.23-.18.75.75,0,0,0-.31-.06.91.91,0,0,0-.53.18,1.28,1.28,0,0,0-.42.55,1.92,1.92,0,0,0-.16.81,2,2,0,0,0,.19.89,1.46,1.46,0,0,0,.52.6,1.25,1.25,0,0,0,.71.2,1.54,1.54,0,0,0,.76-.2A3,3,0,0,0,265.27,203Z"/><path class="cls-11" d="M269.17,197.81v1.84h1.73v1.14h-1.73v1.87a3.34,3.34,0,0,0,.06.82.57.57,0,0,0,.25.28,1,1,0,0,0,.56.15,2,2,0,0,0,1.1-.36v1.15a4.25,4.25,0,0,1-.85.31,3.49,3.49,0,0,1-.82.09,3,3,0,0,1-.88-.13,1.83,1.83,0,0,1-.66-.36,1.3,1.3,0,0,1-.37-.5,2.11,2.11,0,0,1-.11-.76v-2.56h-.8v-1a2,2,0,0,0,.73-.4,2,2,0,0,0,.5-.62,3.13,3.13,0,0,0,.25-.93Z"/><path class="cls-11" d="M275.06,201.76v-.4a1.38,1.38,0,0,0-.06-.49.52.52,0,0,0-.22-.22.74.74,0,0,0-.38-.09.79.79,0,0,0-.32.06.7.7,0,0,0-.24.15,1.38,1.38,0,0,0-.19.36,1.24,1.24,0,0,1-.35.48.83.83,0,0,1-.48.14.78.78,0,0,1-.56-.21A.72.72,0,0,1,272,201a1,1,0,0,1,.23-.64,2.17,2.17,0,0,1,.89-.6,3.59,3.59,0,0,1,1.34-.24,3.08,3.08,0,0,1,1.28.24,1.71,1.71,0,0,1,.73.58,2.09,2.09,0,0,1,.2,1v1.93a1.45,1.45,0,0,0,0,.45.37.37,0,0,0,.16.17.44.44,0,0,0,.28.08,1.28,1.28,0,0,0,.4-.09v1a2.85,2.85,0,0,1-.88.15,2.1,2.1,0,0,1-.84-.16,1.54,1.54,0,0,1-.59-.49,4.5,4.5,0,0,1-1,.5,2.58,2.58,0,0,1-.85.15,1.77,1.77,0,0,1-1.24-.44,1.38,1.38,0,0,1-.47-1.06,1.34,1.34,0,0,1,.16-.66,1.64,1.64,0,0,1,.49-.53,3.33,3.33,0,0,1,1-.4A9.31,9.31,0,0,1,275.06,201.76Zm0,.89a6,6,0,0,0-1,.21.94.94,0,0,0-.41.26.56.56,0,0,0-.12.33.46.46,0,0,0,.16.36.65.65,0,0,0,.43.14,1.13,1.13,0,0,0,.41-.09,3,3,0,0,0,.53-.27Z"/><path class="cls-11" d="M281.84,199.65h.7l.43,1.49-1,.41a2.21,2.21,0,0,0-.73-.73,1.63,1.63,0,0,0-.86-.27.7.7,0,0,0-.43.1.28.28,0,0,0-.14.23.26.26,0,0,0,.1.21,1.27,1.27,0,0,0,.41.2l1.48.53a4.26,4.26,0,0,1,.75.35,1.48,1.48,0,0,1,.54.51,1.36,1.36,0,0,1,.18.71,1.5,1.5,0,0,1-.56,1.2,2.44,2.44,0,0,1-1.63.55,2.53,2.53,0,0,1-1.46-.42l-.15.29h-.72l-.66-1.76,1-.43a2.91,2.91,0,0,0,.94.94,2.05,2.05,0,0,0,1,.34.84.84,0,0,0,.49-.14.3.3,0,0,0,.15-.25.35.35,0,0,0-.12-.24,1.9,1.9,0,0,0-.52-.25l-1.16-.4a3.48,3.48,0,0,1-1.31-.72,1.32,1.32,0,0,1-.34-.91,1.45,1.45,0,0,1,.54-1.14,2.28,2.28,0,0,1,1.53-.53,2.5,2.5,0,0,1,1.38.37Z"/><path class="cls-11" d="M185.23,173.85l1.35,5.26-2.1.59a7.72,7.72,0,0,0-2.37-2.75,5,5,0,0,0-2.82-.87,2.58,2.58,0,0,0-1.51.39,1.11,1.11,0,0,0-.56.88,1.38,1.38,0,0,0,.51,1,4.42,4.42,0,0,0,1.81.84l3,.88a7.58,7.58,0,0,1,3.58,1.91,4.13,4.13,0,0,1,1.05,2.8,4.38,4.38,0,0,1-1.62,3.44,6.66,6.66,0,0,1-4.49,1.55,7.92,7.92,0,0,1-2.29-.32,8.58,8.58,0,0,1-2.18-1.07l-.49,1.12h-1.67l-1.12-6.08,2.1-.5a7.44,7.44,0,0,0,2.31,3.09,5.41,5.41,0,0,0,3.44,1.24,4,4,0,0,0,1.4-.21,1.85,1.85,0,0,0,.84-.59,1.31,1.31,0,0,0,.28-.79,1.42,1.42,0,0,0-.65-1.16,7.74,7.74,0,0,0-2.32-1l-2.61-.76a12.79,12.79,0,0,1-1.61-.64,6,6,0,0,1-1.57-1,4.06,4.06,0,0,1-.9-1.3,4,4,0,0,1-.36-1.67,4.08,4.08,0,0,1,.69-2.29,4.89,4.89,0,0,1,2.08-1.7,7.08,7.08,0,0,1,3.07-.66,6.65,6.65,0,0,1,3.67,1.06l.44-.79Z"/><path class="cls-11" d="M188.51,173.85h7.65V176h-.7a1.92,1.92,0,0,0-.8.11.69.69,0,0,0-.3.33,2.9,2.9,0,0,0-.09.89V186a2.94,2.94,0,0,0,.08.91.51.51,0,0,0,.27.29,1.43,1.43,0,0,0,.7.13h.84v2.17h-7.65v-2.17h.62a2.66,2.66,0,0,0,.87-.09.69.69,0,0,0,.3-.31,2.38,2.38,0,0,0,.09-.82v-8.71a3.27,3.27,0,0,0-.09-1,.73.73,0,0,0-.32-.35,2,2,0,0,0-.77-.09h-.7Z"/><path class="cls-11" d="M207,181.16h7.65v2.19h-.57a1.91,1.91,0,0,0-.77.11.61.61,0,0,0-.31.32,2.19,2.19,0,0,0-.1.83v4.91h-2.3L210,188.4a8.75,8.75,0,0,1-2.19,1,8.07,8.07,0,0,1-2.36.35,7.51,7.51,0,0,1-3.91-1,7.38,7.38,0,0,1-2.78-2.92,8.54,8.54,0,0,1-1-4.2,8.41,8.41,0,0,1,1-4.12,7.53,7.53,0,0,1,2.84-2.87,7.82,7.82,0,0,1,4-1,8.09,8.09,0,0,1,2.06.27,6.6,6.6,0,0,1,1.76.7l.41-.7h1.57l1.42,5.19-2.07.68a13.91,13.91,0,0,0-1.67-2.33,4.48,4.48,0,0,0-1.4-1,3.7,3.7,0,0,0-1.55-.35,3.53,3.53,0,0,0-2,.61,4.24,4.24,0,0,0-1.47,1.81,7,7,0,0,0-.53,2.87,7.93,7.93,0,0,0,.59,3.21,4.49,4.49,0,0,0,1.54,2,3.63,3.63,0,0,0,2.1.66,3.78,3.78,0,0,0,1.53-.32,2.29,2.29,0,0,0,1-.73,2,2,0,0,0,.27-1.09v-.58a2.23,2.23,0,0,0-.08-.75.78.78,0,0,0-.33-.32,2.07,2.07,0,0,0-.82-.11H207Z"/><path class="cls-11" d="M221.41,173.85h3.52l4.7,12.1a3.12,3.12,0,0,0,.68,1.19,1.88,1.88,0,0,0,1.1.21v2.17H224v-2.17h.45a1.63,1.63,0,0,0,.86-.16.49.49,0,0,0,.25-.4,3.13,3.13,0,0,0-.22-.83l-.46-1.43h-4.77l-.58,1.59a2.51,2.51,0,0,0-.18.66.44.44,0,0,0,.13.32.76.76,0,0,0,.42.22,7,7,0,0,0,1,0v2.17h-6.06v-2.17a2.53,2.53,0,0,0,.85-.1,1.08,1.08,0,0,0,.44-.3,2.77,2.77,0,0,0,.39-.75Zm-.47,8.44h3.11l-1.51-4.3Z"/></svg>