<svg xmlns="http://www.w3.org/2000/svg" xmlns:xlink="http://www.w3.org/1999/xlink" viewBox="0 0 403.98 224.64"><defs><style>.cls-1{fill:#4bbdfc;}.cls-2{fill:url(#Degradado_sin_nombre_14);}.cls-3{fill:url(#Degradado_sin_nombre_22);}.cls-12,.cls-4{fill:none;}.cls-4{stroke-linecap:round;stroke-linejoin:round;stroke-width:7px;stroke:url(#Degradado_sin_nombre_26);}.cls-5{fill:#317ccf;}.cls-6{fill:#c6c6c5;}.cls-10,.cls-7{fill:#fafbff;}.cls-7,.cls-8{fill-rule:evenodd;}.cls-8,.cls-9{fill:#fff;}.cls-11{fill:#2d7acc;}</style><linearGradient id="Degradado_sin_nombre_14" x1="165.49" y1="123.29" x2="238.49" y2="50.28" gradientTransform="translate(16.09 -30.58) rotate(9.01)" gradientUnits="userSpaceOnUse"><stop offset="0" stop-color="#50b3f4"/><stop offset="1" stop-color="#317ccd"/></linearGradient><linearGradient id="Degradado_sin_nombre_22" x1="-4241.46" y1="-4559.54" x2="-4150.28" y2="-4559.54" gradientTransform="translate(-5988.96 -170.36) rotate(135)" gradientUnits="userSpaceOnUse"><stop offset="0" stop-color="#1e3a84"/><stop offset="0" stop-color="#1e3b85"/><stop offset="0.14" stop-color="#24529f"/><stop offset="0.29" stop-color="#2864b3"/><stop offset="0.46" stop-color="#2b70c1"/><stop offset="0.66" stop-color="#2c78c9"/><stop offset="1" stop-color="#2d7acc"/></linearGradient><linearGradient id="Degradado_sin_nombre_26" x1="-6151.87" y1="-2706.56" x2="-6077.23" y2="-2781.2" gradientTransform="translate(-5918.54 -2651.12) rotate(180)" gradientUnits="userSpaceOnUse"><stop offset="0" stop-color="#2f7cd6"/><stop offset="1" stop-color="#3fbcf4"/></linearGradient></defs><g id="Capa_2" data-name="Capa 2"><g id="Capa_1-2" data-name="Capa 1"><path class="cls-1" d="M274.2,33.64l-.18-.18a4.55,4.55,0,0,0-6.44,0L256,45a4.56,4.56,0,0,1-6.45,0h0a4.56,4.56,0,0,1,0-6.45l2.91-2.91a4.55,4.55,0,0,0,0-6.44l-.17-.18a4.56,4.56,0,0,0-6.45,0L215.33,59.57a4.55,4.55,0,0,0,0,6.44l.08.08a4.55,4.55,0,0,1,0,6.44l-19.69,19.7a4.55,4.55,0,0,0,0,6.44l.17.18a4.56,4.56,0,0,0,6.45,0l27.18-27.19a4.56,4.56,0,0,1,6.45,0l0,0a4.55,4.55,0,0,1,0,6.44l-3,3a4.56,4.56,0,0,0,0,6.45l.17.17a4.56,4.56,0,0,0,6.45,0L260.28,67.1a4.56,4.56,0,0,0,0-6.45l-.1-.1a4.56,4.56,0,0,1,0-6.45l14-14A4.55,4.55,0,0,0,274.2,33.64Z"/><path class="cls-1" d="M185.1,73.93l.12.12a4.61,4.61,0,0,0,6.5,0l43.83-43.83a4.61,4.61,0,0,0,0-6.5l-.18-.18a4.61,4.61,0,0,0-6.5,0l-22.8,22.81a4.61,4.61,0,0,1-6.5,0l-.12-.12a4.61,4.61,0,0,0-6.5,0L167.09,72.09a4.61,4.61,0,0,0,0,6.5l.18.18a4.61,4.61,0,0,0,6.5,0l4.83-4.84A4.61,4.61,0,0,1,185.1,73.93Z"/><circle class="cls-2" cx="201.99" cy="86.78" r="51.62" transform="translate(-11.1 32.72) rotate(-9.01)"/><circle class="cls-3" cx="201.99" cy="86.78" r="45.59"/><path class="cls-4" d="M202,29.05a57.74,57.74,0,1,0,57.74,57.74"/><path class="cls-5" d="M162.07,136h0a4.76,4.76,0,0,1,0,6.72l-4.61,4.61a4.76,4.76,0,0,1-6.72,0h0a4.74,4.74,0,0,1,0-6.72l4.61-4.61A4.74,4.74,0,0,1,162.07,136Z"/><path class="cls-5" d="M198.14,136h0a4.74,4.74,0,0,1,0,6.72l-8.42,8.42a4.76,4.76,0,0,1-6.72,0h0a4.76,4.76,0,0,1,0-6.72l8.42-8.42A4.74,4.74,0,0,1,198.14,136Z"/><path class="cls-6" d="M178.87,84.5l12.27-5.76a.18.18,0,0,1,.25.09.2.2,0,0,1-.09.25l-12.43,5.83V84.5Zm0-.63,11.11-5a.19.19,0,0,0,.09-.25.2.2,0,0,0-.25-.09l-10.95,5ZM165.55,79a.19.19,0,0,1-.1-.25.2.2,0,0,1,.25-.09l13,5.95.14-.07v.41l-.06,0a.22.22,0,0,1-.16,0l-13.1-6Zm13.32,4.5-.32.14-10.63-5.17a.19.19,0,0,0-.25.09.2.2,0,0,0,.09.25L178.47,84a.22.22,0,0,0,.16,0l.24-.11Z"/><path class="cls-7" d="M188.52,76.56a1.86,1.86,0,1,1-1.85,1.86A1.86,1.86,0,0,1,188.52,76.56Z"/><path class="cls-8" d="M205.42,77.38h1.41l1.36,5.17-1.85.56a9.32,9.32,0,0,0-1.74-2.62,3.52,3.52,0,0,0-2.45-1.07,3.24,3.24,0,0,0-1.81.56A3.79,3.79,0,0,0,199,81.62a6.22,6.22,0,0,0-.49,2.54A6.51,6.51,0,0,0,199.65,88a3.47,3.47,0,0,0,3,1.6,4.08,4.08,0,0,0,2.23-.69,8,8,0,0,0,2.32-2.31l1.54,1.19a11.5,11.5,0,0,1-2.75,3A7.48,7.48,0,0,1,201.68,92a6.61,6.61,0,0,1-3.54-1,7,7,0,0,1-2.53-2.73,8,8,0,0,1-.94-3.83,7.71,7.71,0,0,1,.92-3.77,6.66,6.66,0,0,1,2.5-2.65,7.19,7.19,0,0,1,7-.08l.33-.62Zm4.37,0h5.63l4.06,8.41V80.64a2.79,2.79,0,0,0-.07-.83.64.64,0,0,0-.27-.34,1.37,1.37,0,0,0-.65-.1h-.68v-2h5.72v2h-.63a1.39,1.39,0,0,0-.68.12.56.56,0,0,0-.28.31,2.53,2.53,0,0,0-.08.84V91.79H219l-5.14-10.62V88.6a2.71,2.71,0,0,0,.07.81.56.56,0,0,0,.27.28,1.56,1.56,0,0,0,.67.1h.67v2h-5.75v-2h.59a2,2,0,0,0,.68-.08.67.67,0,0,0,.29-.31,1.39,1.39,0,0,0,.12-.65V80.49a1.72,1.72,0,0,0-.11-.7.61.61,0,0,0-.26-.32,1.19,1.19,0,0,0-.57-.1h-.74v-2Zm14.64,0h6.76v2h-.66a1.26,1.26,0,0,0-.65.12.65.65,0,0,0-.29.32,2.63,2.63,0,0,0-.09.86v5.25a6.29,6.29,0,0,0,.29,2.19,2.27,2.27,0,0,0,.85,1.1,2.47,2.47,0,0,0,1.39.38,2.59,2.59,0,0,0,1.45-.42,2.3,2.3,0,0,0,.91-1,5.82,5.82,0,0,0,.27-2.1V80.24a1.1,1.1,0,0,0-.09-.52.64.64,0,0,0-.32-.29,2.37,2.37,0,0,0-.7-.06H233v-2h5.73v2h-.45a2.54,2.54,0,0,0-.82.08.81.81,0,0,0-.35.36,2.73,2.73,0,0,0-.08.86v5.68a7,7,0,0,1-.43,2.64,4.66,4.66,0,0,1-1.94,2.24,5.89,5.89,0,0,1-3.14.8,6.2,6.2,0,0,1-2.3-.4,5.57,5.57,0,0,1-1.77-1.17,4.41,4.41,0,0,1-1.06-1.61,7.9,7.9,0,0,1-.3-2.5V80.79a3.89,3.89,0,0,0-.08-1,.58.58,0,0,0-.26-.33,1.57,1.57,0,0,0-.7-.1h-.63Z"/><rect class="cls-9" x="194.36" y="93.42" width="44.01" height="0.6"/><path class="cls-8" d="M178.36,92h-.11a.7.7,0,0,0-.7.63,3.66,3.66,0,0,1-1.41-.62.7.7,0,0,0,.23-.52.69.69,0,0,0-.69-.69.71.71,0,0,0-.5.21,3.5,3.5,0,0,1-.49-1.27.6.6,0,0,0,.24,0,.7.7,0,0,0,.69-.7.69.69,0,0,0-.69-.69.78.78,0,0,0-.22,0,3.41,3.41,0,0,1,.52-1.24.72.72,0,0,0,.4.12.69.69,0,0,0,.7-.69.68.68,0,0,0-.13-.4,3.76,3.76,0,0,1,1.38-.58.69.69,0,0,0,.69.62h0l.06,0v-.66L172,82.64V92.77h6.32Z"/><polygon class="cls-8" points="185.47 82.51 185.47 92.77 191.93 92.77 191.93 79.49 185.47 82.51"/><polygon class="cls-8" points="171.59 82.42 165.24 79.49 165.24 92.77 171.59 92.77 171.59 82.42"/><rect class="cls-9" x="165.25" y="93.7" width="26.67" height="0.97"/><rect class="cls-9" x="165.25" y="96.04" width="26.67" height="0.97"/><path class="cls-8" d="M168.58,80.27a1.86,1.86,0,1,0-1.86-1.85A1.85,1.85,0,0,0,168.58,80.27Z"/><path class="cls-8" d="M181.73,83a1.7,1.7,0,1,0-1.7-1.7A1.7,1.7,0,0,0,181.73,83Z"/><path class="cls-8" d="M175.27,83a1.7,1.7,0,1,0-1.69-1.7A1.7,1.7,0,0,0,175.27,83Z"/><path class="cls-9" d="M180.5,92.42a4.12,4.12,0,0,0,1.16-.16,1,1,0,0,0,.61-.41l-1.16-3.45V86.52h-.6v-.15h.75v2l1.17,3.47v0a1.17,1.17,0,0,1-.71.51,4.53,4.53,0,0,1-1.21.17Zm-1.77-.54a.67.67,0,0,0,.35.3,3.28,3.28,0,0,0,1.23.24h.19v.15h-.19a3.4,3.4,0,0,1-1.29-.25.74.74,0,0,1-.43-.4v0l.67-1.94,0,0a1.27,1.27,0,0,0,.31-.5,1.43,1.43,0,0,0,.07-.59v0l.08-.22,0-2.1v-.08h.79v.15h-.64l0,2v0l-.07.21a1.68,1.68,0,0,1-.08.64,1.21,1.21,0,0,1-.34.54Z"/><path class="cls-7" d="M181,88.6l.69,3.33c.19.1.23.06.35-.05Z"/><rect class="cls-10" x="180.79" y="86.68" width="0.14" height="1.49"/><path class="cls-8" d="M178.81,85.63V86a.62.62,0,0,0,.15-.34,3.65,3.65,0,0,1,1.3.49.69.69,0,0,0-.28.35h1.19v.65a.44.44,0,0,0,.08-.11,3.45,3.45,0,0,1,.54,3.21l.56,1.66c-.27.57-1.69.74-2.69.56a3.51,3.51,0,0,1-.72.21.67.67,0,0,0-.13-.34v.48H185v-10Z"/><path class="cls-8" d="M179.73,88.8l.08-.23v-.82a2,2,0,0,0-1-.57v.73c.48.12.88.43.88.77a1.52,1.52,0,0,1-.57,1.38v.31l-.3.07v.62l.15,0,.37-1.07A1.37,1.37,0,0,0,179.73,88.8Z"/><path class="cls-8" d="M178.3,87.11a2,2,0,1,0,0,4h.06v-.58l-.1,0,0-.16-.59.07c-.14,0-.22,0-.22-.06l0-.22c-.08,0-.08-.08,0-.11h.11c.09,0,.06-.16,0-.16l-.24-.09-.06-.15c0-.09-.24,0-.06-.23l.22-.3a.14.14,0,0,0,0-.21l-.12-.07c-.1-.07,0-.25,0-.36a1.14,1.14,0,0,1,1.11-.65v-.74Z"/><path class="cls-9" d="M227.25,96.24V96h.08a.41.41,0,0,0,.17,0,.62.62,0,0,0,.19-.14l.16.16a.81.81,0,0,1-.28.23.71.71,0,0,1-.32.07Zm0-.61v-.2h.2a.18.18,0,0,0,0-.11.23.23,0,0,0-.07-.07l-.09,0h0V95h0a.46.46,0,0,1,.21,0,.51.51,0,0,1,.18.09.91.91,0,0,1,.11.16.6.6,0,0,1,.06.19.58.58,0,0,1,0,.15Zm1.3-.63v.17a.77.77,0,0,1,.17-.13.24.24,0,0,1,.13,0,.2.2,0,0,1,.11,0,.23.23,0,0,1,.07.07.23.23,0,0,1,0,.11.24.24,0,0,1-.05.14.18.18,0,0,1-.14.06h0l-.08,0h-.05a.24.24,0,0,0-.11,0v.46a.54.54,0,0,0,0,.08l0,0h.14v.23H228V96h.14l0,0v-.62H228V95.1a1.24,1.24,0,0,0,.4-.1Zm-1.3,0v.23a.16.16,0,0,0-.09,0,.13.13,0,0,0-.07.06.36.36,0,0,0,0,.11h.2v.2H227a.37.37,0,0,0,.09.25.26.26,0,0,0,.13.08v.28a.61.61,0,0,1-.45-.18.58.58,0,0,1-.19-.44.58.58,0,0,1,.31-.54.73.73,0,0,1,.33-.08Zm-8,1.24V96h.08a.45.45,0,0,0,.18,0,.73.73,0,0,0,.18-.14l.17.16a.84.84,0,0,1-.29.23.68.68,0,0,1-.32.07Zm0-.61v-.2h.2a.18.18,0,0,0,0-.11.23.23,0,0,0-.07-.07l-.09,0h0V95h0a.54.54,0,0,1,.22,0,.56.56,0,0,1,.17.09.61.61,0,0,1,.12.16.6.6,0,0,1,.06.19v.15Zm1.56-1.07h.81v.23h-.16l0,0a.22.22,0,0,0,0,.1v.6a.77.77,0,0,0,0,.25.27.27,0,0,0,.1.13.38.38,0,0,0,.34,0,.33.33,0,0,0,.11-.13.57.57,0,0,0,0-.24v-.66a.08.08,0,0,0,0-.06s0,0,0,0h-.15v-.23h.68v.23h-.15l0,0s0,0,0,.1v.65a.85.85,0,0,1-.05.3.58.58,0,0,1-.23.26.88.88,0,0,1-.65,0,.55.55,0,0,1-.22-.14.41.41,0,0,1-.12-.18.75.75,0,0,1,0-.29V95a.25.25,0,0,0,0-.11l0,0h-.16v-.23Zm2.38.44v.16l.23-.13a.63.63,0,0,1,.19,0,.46.46,0,0,1,.21,0,.3.3,0,0,1,.13.12.56.56,0,0,1,0,.21v.49s0,.07,0,.08,0,0,0,0h.15v.23h-.7V96h.09a.05.05,0,0,0,0,0,.78.78,0,0,0,0-.09v-.43a.2.2,0,0,0,0-.11.1.1,0,0,0-.09,0,.23.23,0,0,0-.11,0,.54.54,0,0,0-.16.09v.47a.16.16,0,0,0,0,.1.13.13,0,0,0,.08,0h0v.23h-.69V96h.13s0,0,0,0,0,0,0-.07v-.55h-.17V95.1a1.8,1.8,0,0,0,.4-.1Zm1.49-.53a.21.21,0,0,1,.22.22.2.2,0,0,1-.06.15.21.21,0,0,1-.16.07.18.18,0,0,1-.15-.07.2.2,0,0,1,0-.3.18.18,0,0,1,.15-.07Zm.19.53v.88a.54.54,0,0,0,0,.08l0,0H225v.23h-.73V96h.14l0,0v-.63h-.17v-.22l.18,0,.15,0,.11,0Zm1.06,0h.63v.23h-.09l0,0,0,.07-.39.86h-.32l-.4-.88a.1.1,0,0,0,0,0s0,0,0,0h-.09V95h.73v.23h-.12s0,0,0,0a.11.11,0,0,0,0,0l.19.47.19-.47a.13.13,0,0,0,0-.06s0,0,0,0h-.14Zm-6.68,0v.23a.16.16,0,0,0-.09,0,.13.13,0,0,0-.07.06.36.36,0,0,0,0,.11h.2v.2H219a.42.42,0,0,0,.09.25.26.26,0,0,0,.13.08v.28a.61.61,0,0,1-.45-.18.58.58,0,0,1-.19-.44.59.59,0,0,1,.09-.32.54.54,0,0,1,.23-.22.66.66,0,0,1,.32-.08Zm-1.55,1.23V96h.08l.13-.07v-.4a.31.31,0,0,0,0-.11.17.17,0,0,0-.07-.08.2.2,0,0,0-.11,0h0V95h.06l.15.06V94.8h-.17v-.23l.24,0,.19-.07h.12v1.38c0,.06,0,.09,0,.1l0,0h.15v.23h-.52v-.12l-.19.11Zm0-1.22v.25l-.1,0a.36.36,0,0,0-.08.12.4.4,0,0,0,0,.2.4.4,0,0,0,.08.26.16.16,0,0,0,.14.08v.27h-.11a.43.43,0,0,1-.25-.07.52.52,0,0,1-.19-.22.72.72,0,0,1-.08-.32.7.7,0,0,1,.08-.33.52.52,0,0,1,.19-.22.5.5,0,0,1,.27-.08ZM214.5,96.2V96l.05,0a.34.34,0,0,0,.12-.06v-.21a.61.61,0,0,0-.17,0v-.22h.17v-.09a.27.27,0,0,0,0-.11.07.07,0,0,0,0,0l-.09,0h0V95h.05a.78.78,0,0,1,.28,0,.43.43,0,0,1,.16.13.47.47,0,0,1,0,.23v.42a1,1,0,0,0,0,.11l0,0a.07.07,0,0,0,.06,0l.09,0v.23a.71.71,0,0,1-.2,0,.48.48,0,0,1-.18,0,.28.28,0,0,1-.13-.11.9.9,0,0,1-.22.11Zm1.39-1.73v1.39a.55.55,0,0,0,0,.09l0,0h.13v.23h-.73V96h.14l0,0s0,0,0-.09V94.8h-.17v-.23a1.47,1.47,0,0,0,.44-.1ZM214.5,95v.23h-.05a.1.1,0,0,0,0,0,.19.19,0,0,0,0,.08.29.29,0,0,1-.08.1.2.2,0,0,1-.11,0,.16.16,0,0,1-.12,0,.17.17,0,0,1-.05-.12.24.24,0,0,1,.05-.14.45.45,0,0,1,.2-.14.92.92,0,0,1,.25,0Zm0,.51v.22h-.05a.23.23,0,0,0-.09.06.11.11,0,0,0,0,.07.11.11,0,0,0,0,.08.17.17,0,0,0,.1,0h0v.22a.46.46,0,0,1-.19,0,.41.41,0,0,1-.27-.1.3.3,0,0,1-.11-.24.33.33,0,0,1,0-.14.32.32,0,0,1,.11-.12,1,1,0,0,1,.22-.09l.2,0Zm-3.06.73V96a.23.23,0,0,0,.18-.09.43.43,0,0,0,.07-.28.41.41,0,0,0-.07-.27.2.2,0,0,0-.17-.09h0V95a.8.8,0,0,1,.36.08.61.61,0,0,1,.23.22.66.66,0,0,1,.08.32.6.6,0,0,1-.18.45.64.64,0,0,1-.48.17ZM212.82,95v.16l.23-.13a.64.64,0,0,1,.2,0,.46.46,0,0,1,.2,0,.3.3,0,0,1,.13.12.41.41,0,0,1,0,.21v.49s0,.07,0,.08a0,0,0,0,0,0,0h.14v.23h-.7V96h.09a.05.05,0,0,0,0,0,.2.2,0,0,0,0-.09v-.43a.2.2,0,0,0,0-.11.1.1,0,0,0-.09,0,.23.23,0,0,0-.11,0,.42.42,0,0,0-.15.09v.47c0,.06,0,.09,0,.1a.13.13,0,0,0,.08,0h0v.23h-.69V96h.14s0,0,0,0a.1.1,0,0,0,0-.07v-.55h-.18V95.1a1.67,1.67,0,0,0,.4-.1Zm-1.38,0v.26a.28.28,0,0,0-.12,0,.27.27,0,0,0-.09.12.54.54,0,0,0,0,.2.65.65,0,0,0,0,.21.27.27,0,0,0,.09.12.21.21,0,0,0,.12,0h0v.25a.64.64,0,0,1-.48-.17.58.58,0,0,1-.18-.45.63.63,0,0,1,.08-.32.61.61,0,0,1,.23-.22.78.78,0,0,1,.35-.08Zm-3.81,1.2V96l.05,0a.34.34,0,0,0,.12-.06v-.21a.61.61,0,0,0-.17,0v-.22h.17v-.09s0-.09,0-.11a.12.12,0,0,0,0,0l-.09,0h0V95h.05a.78.78,0,0,1,.28,0,.43.43,0,0,1,.16.13.47.47,0,0,1,0,.23v.42a1,1,0,0,0,0,.11l0,0a.07.07,0,0,0,.06,0l.09,0v.23a.71.71,0,0,1-.2,0,.48.48,0,0,1-.18,0,.28.28,0,0,1-.13-.11.9.9,0,0,1-.22.11Zm2-.43.17.15a1,1,0,0,1-.29.25.71.71,0,0,1-.32.07.65.65,0,0,1-.47-.17.6.6,0,0,1-.18-.44.65.65,0,0,1,.32-.55.8.8,0,0,1,.36-.08.72.72,0,0,1,.4.11.33.33,0,0,1,.15.24.16.16,0,0,1,0,.1.19.19,0,0,1-.08.07.16.16,0,0,1-.1,0h-.08s-.05,0-.06,0l0-.07-.06-.1-.05,0-.07,0a.28.28,0,0,0-.12,0,.27.27,0,0,0-.09.12.39.39,0,0,0,0,.18.42.42,0,0,0,0,.2.33.33,0,0,0,.28.18.33.33,0,0,0,.16,0,.77.77,0,0,0,.19-.15Zm.69-1.3a.2.2,0,0,1,.15.06.21.21,0,0,1,.07.16.21.21,0,1,1-.22-.22Zm.19.53v.88a.54.54,0,0,0,0,.08l0,0h.14v.23h-.73V96h.14l0,0v-.63h-.17v-.22l.18,0,.15,0,.11,0Zm-2.83,0v.23h0a.1.1,0,0,0-.05,0,.19.19,0,0,0,0,.08.29.29,0,0,1-.08.1.2.2,0,0,1-.11,0,.16.16,0,0,1-.12,0,.17.17,0,0,1-.05-.12.24.24,0,0,1,.05-.14.45.45,0,0,1,.2-.14.92.92,0,0,1,.25,0Zm0,.51v.22h0a.23.23,0,0,0-.09.06.11.11,0,0,0,0,.07.11.11,0,0,0,0,.08.17.17,0,0,0,.1,0h0v.22a.43.43,0,0,1-.19,0,.41.41,0,0,1-.27-.1.3.3,0,0,1-.1-.24.29.29,0,0,1,.14-.26,1,1,0,0,1,.22-.09l.2,0Zm-4,.73V96a.23.23,0,0,0,.18-.09.43.43,0,0,0,.07-.28.41.41,0,0,0-.07-.27.2.2,0,0,0-.18-.09h0V95a.75.75,0,0,1,.35.08.64.64,0,0,1,.24.22.66.66,0,0,1,.08.32.6.6,0,0,1-.18.45.65.65,0,0,1-.49.17Zm1.68-1.68H206l.49,1v-.6c0-.05,0-.08,0-.09l0,0h-.16v-.23h.69v.23h-.16l0,0a.55.55,0,0,0,0,.09v1.29h-.34L205.77,95v.86c0,.05,0,.08,0,.09a0,0,0,0,0,0,0,.13.13,0,0,0,.08,0H206v.23h-.69V96h.15a.08.08,0,0,0,0,0,.15.15,0,0,0,0-.07v-1a.22.22,0,0,0,0-.09l0,0h-.16ZM203.6,95v.26a.28.28,0,0,0-.12,0,.4.4,0,0,0-.1.12.56.56,0,0,0,0,.2.66.66,0,0,0,0,.21.62.62,0,0,0,.09.12.28.28,0,0,0,.13,0h0v.25a.68.68,0,0,1-.49-.17.61.61,0,0,1-.17-.45.63.63,0,0,1,.08-.32.61.61,0,0,1,.23-.22.78.78,0,0,1,.35-.08Zm-1.74,1.67v-.29a.15.15,0,0,1,.18,0l.11.09a.07.07,0,0,0,.06,0,.06.06,0,0,0,.06,0s0-.06,0-.11v-1h-.17V95.1l.23,0a.9.9,0,0,0,.21-.08h.11v1.27a.5.5,0,0,1,0,.27.33.33,0,0,1-.17.16.65.65,0,0,1-.29.06.4.4,0,0,1-.2,0,.31.31,0,0,1-.1,0Zm0-.65.08-.08-.08-.08V96Zm0-.39h.06c0-.07,0-.12,0-.15a.75.75,0,0,0,0-.16v.31Zm.62-1.16a.21.21,0,0,1,.22.22.2.2,0,0,1-.06.15.26.26,0,0,1-.16.07.21.21,0,0,1-.15-.07.2.2,0,0,1-.06-.15.25.25,0,0,1,.06-.16A.2.2,0,0,1,202.48,94.47Zm-.62.85v.31h-.52v-.2h.2a.28.28,0,0,0,0-.11.16.16,0,0,0-.07-.07l-.09,0h0V95h0a.54.54,0,0,1,.22,0,.56.56,0,0,1,.17.09.61.61,0,0,1,.12.16v0Zm0,.54V96a.69.69,0,0,1-.21.15.67.67,0,0,1-.31.07h0V96h.07a.41.41,0,0,0,.18,0,.73.73,0,0,0,.18-.14l.09.08Zm0,.52v.29l0,0a.21.21,0,0,1-.05-.12.14.14,0,0,1,.06-.11S201.85,96.39,201.86,96.38ZM201.34,95v.23a.12.12,0,0,0-.09,0,.12.12,0,0,0-.08.06.2.2,0,0,0,0,.11h.2v.2h-.22a.41.41,0,0,0,.08.25.29.29,0,0,0,.14.08v.28a.63.63,0,0,1-.46-.18.61.61,0,0,1-.19-.44.59.59,0,0,1,.09-.32.54.54,0,0,1,.23-.22.67.67,0,0,1,.33-.08Zm-4.41,1.24V96a.22.22,0,0,0,.17-.09.43.43,0,0,0,.08-.28.48.48,0,0,0-.07-.27.23.23,0,0,0-.18-.09h0V95a.78.78,0,0,1,.35.08.54.54,0,0,1,.23.22.57.57,0,0,1,.08.32.6.6,0,0,1-.18.45.64.64,0,0,1-.48.17ZM198.3,95v.16l.23-.13a.69.69,0,0,1,.2,0,.42.42,0,0,1,.2,0,.26.26,0,0,1,.13.12.41.41,0,0,1,0,.21v.49a.38.38,0,0,0,0,.08s0,0,0,0h.14v.23h-.69V96h.08s0,0,0,0a.2.2,0,0,0,0-.09v-.43a.25.25,0,0,0,0-.11.11.11,0,0,0-.1,0,.18.18,0,0,0-.1,0,.44.44,0,0,0-.16.09v.47c0,.06,0,.09,0,.1a.1.1,0,0,0,.07,0h0v.23h-.69V96h.14l0,0a.35.35,0,0,0,0-.07v-.55h-.18V95.1a1.67,1.67,0,0,0,.4-.1Zm1.94,0h.15l.1.33-.22.09a.52.52,0,0,0-.17-.16.33.33,0,0,0-.19-.06l-.09,0a.05.05,0,0,0,0,0s0,0,0,0a.19.19,0,0,0,.09,0l.33.12a.8.8,0,0,1,.16.08.26.26,0,0,1,.12.11.29.29,0,0,1,0,.16.32.32,0,0,1-.12.26.56.56,0,0,1-.36.12.6.6,0,0,1-.33-.09l0,.07h-.16l-.14-.39.22-.1a.7.7,0,0,0,.21.21.43.43,0,0,0,.23.07.2.2,0,0,0,.11,0,.06.06,0,0,0,0-.1s-.05,0-.11-.06l-.26-.09a.69.69,0,0,1-.29-.16.3.3,0,0,1-.08-.2.32.32,0,0,1,.12-.25.52.52,0,0,1,.34-.12.62.62,0,0,1,.31.08Zm-4.5-.47h.17l.16.59-.22.07a1,1,0,0,0-.2-.3.43.43,0,0,0-.3-.13.31.31,0,0,0-.21.07.38.38,0,0,0-.16.19.65.65,0,0,0-.06.29.72.72,0,0,0,.13.44.43.43,0,0,0,.36.18.42.42,0,0,0,.26-.08.86.86,0,0,0,.28-.26l.19.13a1.41,1.41,0,0,1-.33.35.94.94,0,0,1-.51.14.79.79,0,0,1-.43-.11.75.75,0,0,1-.3-.31.85.85,0,0,1-.11-.44.82.82,0,0,1,.11-.44.72.72,0,0,1,.3-.3.82.82,0,0,1,.42-.11.78.78,0,0,1,.41.1l0-.07Zm1.19.44v.26a.28.28,0,0,0-.13,0,.27.27,0,0,0-.09.12.56.56,0,0,0,0,.2.66.66,0,0,0,0,.21.27.27,0,0,0,.09.12.28.28,0,0,0,.12,0h0v.25a.65.65,0,0,1-.49-.17.58.58,0,0,1-.18-.45.63.63,0,0,1,.08-.32.64.64,0,0,1,.24-.22.74.74,0,0,1,.34-.08Z"/><path class="cls-9" d="M236.46,96.24V96h.08a.41.41,0,0,0,.17,0,.62.62,0,0,0,.19-.14l.16.16a.81.81,0,0,1-.28.23.71.71,0,0,1-.32.07Zm0-.61v-.2h.2a.81.81,0,0,0,0-.11.23.23,0,0,0-.07-.07l-.09,0h0V95h0a.68.68,0,0,1,.38.13.61.61,0,0,1,.12.16.6.6,0,0,1,.06.19.58.58,0,0,1,0,.15ZM238,95h.16l.09.33-.22.09a.49.49,0,0,0-.16-.16.38.38,0,0,0-.19-.06.22.22,0,0,0-.1,0,.05.05,0,0,0,0,0s0,0,0,0l.09,0,.33.12.17.08a.43.43,0,0,1,.12.11.42.42,0,0,1,0,.16.3.3,0,0,1-.13.26.52.52,0,0,1-.36.12.57.57,0,0,1-.32-.09l0,.07h-.16l-.15-.39.23-.1a.58.58,0,0,0,.2.21.46.46,0,0,0,.23.07.2.2,0,0,0,.11,0,.05.05,0,0,0,0,0,.08.08,0,0,0,0-.05l-.12-.06-.26-.09a.76.76,0,0,1-.29-.16.29.29,0,0,1-.07-.2.32.32,0,0,1,.12-.25.49.49,0,0,1,.34-.12.58.58,0,0,1,.3.08Zm-1.58,0v.23a.16.16,0,0,0-.09,0,.11.11,0,0,0-.07.06.21.21,0,0,0,0,.11h.2v.2h-.22a.37.37,0,0,0,.09.25.26.26,0,0,0,.13.08v.28a.65.65,0,0,1-.46-.18.6.6,0,0,1-.18-.44.69.69,0,0,1,.08-.32.61.61,0,0,1,.23-.22.73.73,0,0,1,.33-.08Zm-1.56,1.23V96H235l.13-.07v-.4a.27.27,0,0,0,0-.11.21.21,0,0,0-.06-.08.2.2,0,0,0-.11,0h0V95H235l.16.06V94.8h-.18v-.23l.24,0,.2-.07h.12V96l0,0h.14v.23h-.51v-.12a1,1,0,0,1-.2.11Zm0-1.22v.25l-.09,0a.27.27,0,0,0-.09.12.56.56,0,0,0,0,.2.4.4,0,0,0,.07.26.17.17,0,0,0,.14.08v.27h-.11a.45.45,0,0,1-.25-.07.52.52,0,0,1-.19-.22.71.71,0,0,1-.07-.32.84.84,0,0,1,.07-.33.54.54,0,0,1,.2-.22.5.5,0,0,1,.27-.08Zm-1.5,1.19V96l0,0a.34.34,0,0,0,.12-.06v-.21a.61.61,0,0,0-.17,0v-.22h.17v-.09s0-.09,0-.11a.12.12,0,0,0-.05,0l-.09,0h0V95h0a.78.78,0,0,1,.28,0,.36.36,0,0,1,.16.13.46.46,0,0,1,.05.23v.53l0,0a.07.07,0,0,0,.06,0l.09,0v.23a.72.72,0,0,1-.19,0,.49.49,0,0,1-.19,0,.28.28,0,0,1-.13-.11.9.9,0,0,1-.22.11Zm0-1.2v.23h-.05a.1.1,0,0,0,0,0,.19.19,0,0,0,0,.08.29.29,0,0,1-.08.1.2.2,0,0,1-.11,0,.16.16,0,0,1-.12,0,.17.17,0,0,1,0-.12.24.24,0,0,1,0-.14.51.51,0,0,1,.2-.14.92.92,0,0,1,.25,0Zm0,.51v.22h-.05l-.09.06a.11.11,0,0,0,0,.07.09.09,0,0,0,0,.08.12.12,0,0,0,.09,0h0v.22a.42.42,0,0,1-.18,0,.41.41,0,0,1-.28-.1.3.3,0,0,1-.1-.24.29.29,0,0,1,.14-.26,1,1,0,0,1,.22-.09l.2,0Zm-1.47.72V96H232l.12-.07v-.4a.31.31,0,0,0,0-.11.21.21,0,0,0-.06-.08.24.24,0,0,0-.12,0h0V95H232a.47.47,0,0,1,.15.06V94.8H232v-.23l.24,0,.2-.07h.11v1.38a.58.58,0,0,0,0,.1l0,0h.15v.23h-.51v-.12a1,1,0,0,1-.2.11ZM230,95h.16l.1.33-.23.09a.41.41,0,0,0-.16-.16.35.35,0,0,0-.19-.06l-.1,0a.05.05,0,0,0,0,0s0,0,0,0a.19.19,0,0,0,.09,0l.32.12.17.08a.43.43,0,0,1,.12.11.29.29,0,0,1,0,.16.32.32,0,0,1-.12.26.62.62,0,0,1-.69,0l0,.07h-.16l-.15-.39.23-.1a.53.53,0,0,0,.21.21.4.4,0,0,0,.22.07.18.18,0,0,0,.11,0,.05.05,0,0,0,0,0s0,0,0-.05l-.12-.06-.25-.09a.63.63,0,0,1-.29-.16.3.3,0,0,1-.08-.2.32.32,0,0,1,.12-.25.49.49,0,0,1,.34-.12.56.56,0,0,1,.3.08l0,0Zm2,0v.25l-.09,0a.27.27,0,0,0-.09.12.56.56,0,0,0,0,.2.4.4,0,0,0,.07.26.17.17,0,0,0,.14.08v.27h-.11a.45.45,0,0,1-.25-.07.52.52,0,0,1-.19-.22.71.71,0,0,1-.07-.32.7.7,0,0,1,.07-.33.54.54,0,0,1,.2-.22.5.5,0,0,1,.26-.08Zm-1.15-.54a.2.2,0,0,1,.15.06.21.21,0,0,1,.07.16.21.21,0,1,1-.22-.22ZM231,95v.88s0,.07,0,.08,0,0,0,0h.14v.23h-.73V96h.14l0,0v-.63h-.17v-.22l.18,0,.15,0,.11,0Z"/><path class="cls-11" d="M91.2,195.14l.61,2.41-1,.27a3.61,3.61,0,0,0-1.08-1.26,2.3,2.3,0,0,0-1.29-.4,1.19,1.19,0,0,0-.7.18.5.5,0,0,0-.25.4.64.64,0,0,0,.23.47,2.06,2.06,0,0,0,.83.39L90,198a3.4,3.4,0,0,1,1.64.88,1.87,1.87,0,0,1,.48,1.28,2,2,0,0,1-.74,1.57,3,3,0,0,1-2.06.71,3.86,3.86,0,0,1-1.05-.14,3.79,3.79,0,0,1-1-.49l-.23.51h-.77l-.51-2.78,1-.23a3.32,3.32,0,0,0,1.05,1.41,2.5,2.5,0,0,0,1.58.57,1.69,1.69,0,0,0,.64-.1.73.73,0,0,0,.38-.27.59.59,0,0,0,.13-.36.66.66,0,0,0-.3-.53,3.59,3.59,0,0,0-1.06-.44l-1.2-.35a4.48,4.48,0,0,1-.73-.29,2.9,2.9,0,0,1-.72-.44,1.77,1.77,0,0,1-.41-.6,1.8,1.8,0,0,1-.17-.76,1.88,1.88,0,0,1,.32-1.05,2.26,2.26,0,0,1,1-.78,3.24,3.24,0,0,1,1.41-.3,3.05,3.05,0,0,1,1.68.48l.2-.36Z"/><path class="cls-11" d="M95.15,197.06v3.8a.75.75,0,0,0,0,.34.17.17,0,0,0,.11.09.87.87,0,0,0,.35,0h.28v1H92.75v-1H93a1.23,1.23,0,0,0,.35,0,.21.21,0,0,0,.11-.1.72.72,0,0,0,0-.26v-2.46h-.76v-1a6.43,6.43,0,0,0,.78-.08c.25-.05.47-.1.67-.16a3.32,3.32,0,0,0,.47-.21Zm-.83-2.29a.92.92,0,0,1,.94.94.92.92,0,0,1-.27.67.94.94,0,0,1-1.34,0,.92.92,0,0,1-.27-.67.88.88,0,0,1,.28-.66A.9.9,0,0,1,94.32,194.77Z"/><path class="cls-11" d="M100,197.19h.68l.41,1.43-1,.39a2.07,2.07,0,0,0-.7-.71,1.57,1.57,0,0,0-.83-.25.7.7,0,0,0-.4.09.28.28,0,0,0-.14.22.25.25,0,0,0,.1.2,1,1,0,0,0,.39.2l1.42.5a3.94,3.94,0,0,1,.72.34,1.34,1.34,0,0,1,.51.49,1.25,1.25,0,0,1,.18.68,1.43,1.43,0,0,1-.54,1.15,2.35,2.35,0,0,1-1.56.52,2.4,2.4,0,0,1-1.4-.4l-.15.28h-.68l-.63-1.69,1-.41a2.76,2.76,0,0,0,.9.9,1.87,1.87,0,0,0,1,.33.87.87,0,0,0,.47-.13.28.28,0,0,0,.14-.24.3.3,0,0,0-.11-.23,1.63,1.63,0,0,0-.5-.24l-1.11-.39a3.24,3.24,0,0,1-1.25-.69,1.29,1.29,0,0,1-.34-.87,1.38,1.38,0,0,1,.52-1.09,2.19,2.19,0,0,1,1.47-.51,2.45,2.45,0,0,1,1.32.35Z"/><path class="cls-11" d="M104.32,195.42v1.77H106v1.09h-1.66v1.79a2.84,2.84,0,0,0,.07.78.5.5,0,0,0,.24.28,1,1,0,0,0,.53.14,1.91,1.91,0,0,0,1-.35V202a4.58,4.58,0,0,1-.81.3,3.81,3.81,0,0,1-.78.08,2.77,2.77,0,0,1-.85-.12,1.82,1.82,0,0,1-.63-.34,1.32,1.32,0,0,1-.36-.48,2.24,2.24,0,0,1-.1-.73v-2.45h-.77v-1a2,2,0,0,0,1.18-1,2.79,2.79,0,0,0,.24-.89Z"/><path class="cls-11" d="M111.51,200.42l.71.71a4.07,4.07,0,0,1-1.24,1,3,3,0,0,1-1.36.31,2.72,2.72,0,0,1-2-.79,2.72,2.72,0,0,1-.44-3.28,2.5,2.5,0,0,1,1-1,3,3,0,0,1,1.44-.35,2.77,2.77,0,0,1,.94.15,2.18,2.18,0,0,1,.74.43,2.13,2.13,0,0,1,.51.67,2.91,2.91,0,0,1,.26.82,5.17,5.17,0,0,1,0,.66h-3.46a1.59,1.59,0,0,0,.38,1.06,1.22,1.22,0,0,0,.92.41,1.64,1.64,0,0,0,.75-.21A3,3,0,0,0,111.51,200.42Zm-1-1.49a1.19,1.19,0,0,0-.14-.49,1,1,0,0,0-.3-.28.83.83,0,0,0-.4-.11.94.94,0,0,0-.42.11.84.84,0,0,0-.32.3,1.18,1.18,0,0,0-.16.47Z"/><path class="cls-11" d="M115.31,197.06v.69a3.53,3.53,0,0,1,.91-.52,2.83,2.83,0,0,1,.94-.17,1.92,1.92,0,0,1,.59.09,1.48,1.48,0,0,1,.47.24,1.33,1.33,0,0,1,.34.39,3.5,3.5,0,0,1,1-.55,2.79,2.79,0,0,1,.94-.17,1.78,1.78,0,0,1,.74.15,1.59,1.59,0,0,1,.54.4,1.27,1.27,0,0,1,.27.56,2.46,2.46,0,0,1,0,.54v2.13a1.08,1.08,0,0,0,0,.34.3.3,0,0,0,.13.12,1.35,1.35,0,0,0,.38,0h.23v1h-3v-1a1.12,1.12,0,0,0,.41,0,.22.22,0,0,0,.13-.1.79.79,0,0,0,0-.33V199a1.34,1.34,0,0,0,0-.43.42.42,0,0,0-.17-.18.61.61,0,0,0-.3-.08,1.23,1.23,0,0,0-.44.09,3.76,3.76,0,0,0-.68.4v2a1,1,0,0,0,0,.38.24.24,0,0,0,.14.12l.4,0v1h-2.81v-1a2.22,2.22,0,0,0,.43,0,.2.2,0,0,0,.11-.11,1,1,0,0,0,0-.38V199a1.25,1.25,0,0,0-.08-.54.42.42,0,0,0-.4-.2,1,1,0,0,0-.3,0,1.21,1.21,0,0,0-.32.11l-.42.27-.12.07v2a1.18,1.18,0,0,0,0,.36.23.23,0,0,0,.12.12.73.73,0,0,0,.31.05h.14v1h-3v-1h.2a1.12,1.12,0,0,0,.4,0,.25.25,0,0,0,.12-.11,1.31,1.31,0,0,0,0-.38v-2.31h-.76v-1a5.7,5.7,0,0,0,1.74-.44Z"/><path class="cls-11" d="M126.62,199.21v-.38a1.22,1.22,0,0,0-.06-.47.47.47,0,0,0-.2-.22.84.84,0,0,0-.37-.08.75.75,0,0,0-.31.06.44.44,0,0,0-.22.14,1.09,1.09,0,0,0-.19.34,1.15,1.15,0,0,1-.34.46.77.77,0,0,1-.45.14.73.73,0,0,1-.54-.21.69.69,0,0,1-.21-.51,1,1,0,0,1,.21-.61,2.07,2.07,0,0,1,.86-.58,3.49,3.49,0,0,1,1.29-.23,3,3,0,0,1,1.22.23,1.64,1.64,0,0,1,.7.56,1.93,1.93,0,0,1,.19,1v1.84a1.6,1.6,0,0,0,0,.43.3.3,0,0,0,.15.17.5.5,0,0,0,.27.07,1.12,1.12,0,0,0,.38-.08v1a2.55,2.55,0,0,1-.84.14,1.94,1.94,0,0,1-.8-.15,1.49,1.49,0,0,1-.57-.46,4.06,4.06,0,0,1-.93.47,2.38,2.38,0,0,1-.81.14,1.72,1.72,0,0,1-1.19-.41,1.34,1.34,0,0,1-.45-1,1.29,1.29,0,0,1,.16-.64,1.45,1.45,0,0,1,.46-.5,3.19,3.19,0,0,1,1-.38A9.64,9.64,0,0,1,126.62,199.21Zm0,.85a5.42,5.42,0,0,0-1,.2.89.89,0,0,0-.4.25.51.51,0,0,0-.12.31.43.43,0,0,0,.16.35.6.6,0,0,0,.41.14,1.08,1.08,0,0,0,.4-.09,3,3,0,0,0,.5-.26Z"/><path class="cls-11" d="M133.21,195.14h2.92l2.1,4.19v-2.56a1.58,1.58,0,0,0,0-.41.38.38,0,0,0-.14-.18.88.88,0,0,0-.34,0h-.35v-1h3v1H140a.78.78,0,0,0-.35.05.33.33,0,0,0-.15.16,1.57,1.57,0,0,0,0,.42v5.55H138L135.32,197v3.7a1.19,1.19,0,0,0,0,.41.27.27,0,0,0,.14.14.86.86,0,0,0,.34.05h.34v1h-3v-1h.31a.88.88,0,0,0,.35-.05.28.28,0,0,0,.15-.15.67.67,0,0,0,.06-.32v-4.12a1,1,0,0,0-.05-.35.44.44,0,0,0-.14-.16.68.68,0,0,0-.29,0h-.39Z"/><path class="cls-11" d="M144.11,199.21v-.38a1.22,1.22,0,0,0-.06-.47.47.47,0,0,0-.2-.22.84.84,0,0,0-.37-.08.75.75,0,0,0-.31.06.44.44,0,0,0-.22.14,1.3,1.3,0,0,0-.2.34,1.05,1.05,0,0,1-.33.46.77.77,0,0,1-.45.14.73.73,0,0,1-.54-.21.69.69,0,0,1-.21-.51,1,1,0,0,1,.21-.61,2,2,0,0,1,.86-.58,3.49,3.49,0,0,1,1.29-.23,3,3,0,0,1,1.22.23,1.54,1.54,0,0,1,.69.56,1.82,1.82,0,0,1,.2,1v1.84a1.26,1.26,0,0,0,0,.43.3.3,0,0,0,.15.17.5.5,0,0,0,.27.07,1.12,1.12,0,0,0,.38-.08v1a2.55,2.55,0,0,1-.84.14,1.94,1.94,0,0,1-.8-.15,1.49,1.49,0,0,1-.57-.46,4.06,4.06,0,0,1-.93.47,2.38,2.38,0,0,1-.81.14,1.72,1.72,0,0,1-1.19-.41,1.34,1.34,0,0,1-.45-1,1.29,1.29,0,0,1,.16-.64,1.45,1.45,0,0,1,.46-.5,3.19,3.19,0,0,1,1-.38A9.64,9.64,0,0,1,144.11,199.21Zm0,.85a5.42,5.42,0,0,0-1,.2.89.89,0,0,0-.4.25.51.51,0,0,0-.12.31.43.43,0,0,0,.16.35.6.6,0,0,0,.41.14,1.08,1.08,0,0,0,.4-.09,3,3,0,0,0,.5-.26Z"/><path class="cls-11" d="M151.81,200.38l.75.66a4,4,0,0,1-1.26,1.07,3,3,0,0,1-1.4.33,2.77,2.77,0,0,1-2-.77,2.52,2.52,0,0,1-.8-1.9,2.63,2.63,0,0,1,1.4-2.36,3.2,3.2,0,0,1,1.53-.35,2.88,2.88,0,0,1,1.73.49,1.35,1.35,0,0,1,.67,1,.8.8,0,0,1-.1.41.78.78,0,0,1-.32.3,1,1,0,0,1-.46.11.78.78,0,0,1-.35-.07,1.06,1.06,0,0,1-.26-.2,1.89,1.89,0,0,1-.18-.32,2.49,2.49,0,0,0-.26-.44.72.72,0,0,0-.22-.17.73.73,0,0,0-.3-.06.88.88,0,0,0-.51.18,1.22,1.22,0,0,0-.4.52,2,2,0,0,0,0,1.63,1.33,1.33,0,0,0,.5.57,1.23,1.23,0,0,0,.68.2,1.54,1.54,0,0,0,.73-.2A3.16,3.16,0,0,0,151.81,200.38Z"/><path class="cls-11" d="M155.64,197.06v3.8a1.06,1.06,0,0,0,0,.34.2.2,0,0,0,.11.09.9.9,0,0,0,.36,0h.28v1h-3.18v-1h.27a1.15,1.15,0,0,0,.34,0,.18.18,0,0,0,.11-.1.51.51,0,0,0,0-.26v-2.46h-.76v-1a6.43,6.43,0,0,0,.78-.08c.24-.05.47-.1.66-.16a2.55,2.55,0,0,0,.47-.21Zm-.83-2.29a.94.94,0,0,1,.66,1.61.93.93,0,0,1-1.33,0,.93.93,0,0,1-.28-.67,1,1,0,0,1,.95-.94Z"/><path class="cls-11" d="M159.87,197.06a3.27,3.27,0,0,1,1.54.35,2.46,2.46,0,0,1,1,.94,2.62,2.62,0,0,1,.36,1.39,2.55,2.55,0,0,1-.79,1.95,2.88,2.88,0,0,1-2.09.75,3,3,0,0,1-2.12-.75,2.58,2.58,0,0,1-.76-1.95,2.68,2.68,0,0,1,.35-1.39,2.55,2.55,0,0,1,1-.94A3.19,3.19,0,0,1,159.87,197.06Zm0,1.13a1,1,0,0,0-.55.17,1.11,1.11,0,0,0-.39.52,2.11,2.11,0,0,0-.15.86,2.58,2.58,0,0,0,.14.9,1.12,1.12,0,0,0,.39.52.86.86,0,0,0,.53.17,1,1,0,0,0,.78-.38,1.8,1.8,0,0,0,.33-1.19,1.93,1.93,0,0,0-.31-1.18A.92.92,0,0,0,159.89,198.19Z"/><path class="cls-11" d="M165.83,197.06v.69a4,4,0,0,1,1-.54,2.44,2.44,0,0,1,.84-.15,1.83,1.83,0,0,1,.89.21,1.44,1.44,0,0,1,.56.53,2,2,0,0,1,.17.9v2.14a.87.87,0,0,0,0,.35.22.22,0,0,0,.12.11,1.22,1.22,0,0,0,.37,0h.25v1h-3v-1l.39,0a.25.25,0,0,0,.17-.12.87.87,0,0,0,0-.35V199a.93.93,0,0,0-.08-.47.43.43,0,0,0-.39-.18,1.21,1.21,0,0,0-.47.1,3.13,3.13,0,0,0-.68.4v2a.7.7,0,0,0,.07.41.54.54,0,0,0,.35.08h.16v1h-3v-1h.14a1.78,1.78,0,0,0,.44,0,.24.24,0,0,0,.13-.11.64.64,0,0,0,0-.3v-2.4h-.76v-1a7,7,0,0,0,1.73-.44Z"/><path class="cls-11" d="M173.83,199.21v-.38a1.22,1.22,0,0,0-.06-.47.47.47,0,0,0-.2-.22.84.84,0,0,0-.37-.08.75.75,0,0,0-.31.06.44.44,0,0,0-.22.14,1.09,1.09,0,0,0-.19.34,1.15,1.15,0,0,1-.34.46.75.75,0,0,1-.45.14.73.73,0,0,1-.54-.21.69.69,0,0,1-.21-.51,1,1,0,0,1,.21-.61,2.07,2.07,0,0,1,.86-.58,3.49,3.49,0,0,1,1.29-.23,3,3,0,0,1,1.22.23,1.64,1.64,0,0,1,.7.56,1.93,1.93,0,0,1,.19,1v1.84a1.6,1.6,0,0,0,0,.43.35.35,0,0,0,.15.17.5.5,0,0,0,.27.07,1.12,1.12,0,0,0,.38-.08v1a2.55,2.55,0,0,1-.84.14,1.94,1.94,0,0,1-.8-.15,1.49,1.49,0,0,1-.57-.46,4.06,4.06,0,0,1-.93.47,2.38,2.38,0,0,1-.81.14,1.72,1.72,0,0,1-1.19-.41,1.34,1.34,0,0,1-.45-1,1.29,1.29,0,0,1,.16-.64,1.45,1.45,0,0,1,.46-.5,3.19,3.19,0,0,1,1-.38A9.64,9.64,0,0,1,173.83,199.21Zm0,.85a5.42,5.42,0,0,0-1,.2.89.89,0,0,0-.4.25.51.51,0,0,0-.12.31.43.43,0,0,0,.16.35.6.6,0,0,0,.41.14,1.08,1.08,0,0,0,.4-.09,3,3,0,0,0,.5-.26Z"/><path class="cls-11" d="M179.13,194.77v6a1.18,1.18,0,0,0,0,.36.24.24,0,0,0,.16.15,1.63,1.63,0,0,0,.42,0h.18v1h-3.19v-1h.2a1.4,1.4,0,0,0,.39,0,.3.3,0,0,0,.13-.12,1.06,1.06,0,0,0,0-.38V196.2h-.76v-1a6.41,6.41,0,0,0,1.9-.43Z"/><path class="cls-11" d="M189.33,194.77v6a1.67,1.67,0,0,0,0,.43.18.18,0,0,0,.1.11,1.05,1.05,0,0,0,.4,0h.24v1l-2.23.08v-.53a4.78,4.78,0,0,1-.85.45,2.37,2.37,0,0,1-.73.12,1.91,1.91,0,0,1-1.09-.32,2.42,2.42,0,0,1-.82-1,3.31,3.31,0,0,1,0-2.82,2.21,2.21,0,0,1,.84-1,2.12,2.12,0,0,1,1.16-.33,2.59,2.59,0,0,1,.63.08,3.21,3.21,0,0,1,.67.28V196.2h-.76v-1a5.71,5.71,0,0,0,1.9-.43Zm-1.65,6.08v-1.73a1.62,1.62,0,0,0,0-.45.69.69,0,0,0-.28-.34.93.93,0,0,0-.49-.14.83.83,0,0,0-.52.17,1.13,1.13,0,0,0-.37.51,2.15,2.15,0,0,0-.14.86,1.88,1.88,0,0,0,.31,1.14.75.75,0,0,0,.65.34,1.26,1.26,0,0,0,.33-.05A4.09,4.09,0,0,0,187.68,200.85Z"/><path class="cls-11" d="M195.39,200.42l.71.71a4.07,4.07,0,0,1-1.24,1,3,3,0,0,1-1.36.31,2.72,2.72,0,0,1-2-.79,2.72,2.72,0,0,1-.44-3.28,2.5,2.5,0,0,1,1-1,3,3,0,0,1,1.45-.35,2.75,2.75,0,0,1,.93.15,2.18,2.18,0,0,1,.74.43,2.13,2.13,0,0,1,.51.67,2.93,2.93,0,0,1,.27.82,5.17,5.17,0,0,1,0,.66h-3.47a1.55,1.55,0,0,0,.39,1.06,1.18,1.18,0,0,0,.91.41,1.64,1.64,0,0,0,.75-.21A3,3,0,0,0,195.39,200.42Zm-1-1.49a1.19,1.19,0,0,0-.14-.49,1,1,0,0,0-.3-.28.83.83,0,0,0-.4-.11.87.87,0,0,0-.41.11.8.8,0,0,0-.33.3,1,1,0,0,0-.15.47Z"/><path class="cls-11" d="M200.44,195.14h6l.82,2.27-.93.34a3.21,3.21,0,0,0-.55-.9,1.5,1.5,0,0,0-.7-.45,3.38,3.38,0,0,0-.89-.11h-1.1v1.79h.36A1.68,1.68,0,0,0,204,198a.39.39,0,0,0,.2-.18,1.44,1.44,0,0,0,.06-.51v-.27h.92v3h-.92v-.31a1.08,1.08,0,0,0-.07-.46.41.41,0,0,0-.2-.19,1.7,1.7,0,0,0-.57-.06h-.33v1.65a.9.9,0,0,0,0,.32.15.15,0,0,0,.1.09,1,1,0,0,0,.32,0h.6a3,3,0,0,0,1.14-.19,2.13,2.13,0,0,0,.82-.63,2.88,2.88,0,0,0,.56-1l.94.32-.94,2.67h-6.21v-1h.18a1.58,1.58,0,0,0,.48-.05.32.32,0,0,0,.18-.18,1.84,1.84,0,0,0,0-.44v-3.91a1.22,1.22,0,0,0-.05-.42.37.37,0,0,0-.13-.15,1.07,1.07,0,0,0-.37,0h-.32Z"/><path class="cls-11" d="M211.51,197.19h.68l.41,1.43-1,.39a2.13,2.13,0,0,0-.69-.71,1.6,1.6,0,0,0-.84-.25.72.72,0,0,0-.4.09.25.25,0,0,0,0,.42,1,1,0,0,0,.39.2l1.42.5a3.94,3.94,0,0,1,.72.34,1.45,1.45,0,0,1,.52.49,1.34,1.34,0,0,1,.17.68,1.43,1.43,0,0,1-.54,1.15,2.35,2.35,0,0,1-1.56.52,2.42,2.42,0,0,1-1.4-.4l-.15.28h-.68l-.63-1.69,1-.41a2.76,2.76,0,0,0,.9.9,1.9,1.9,0,0,0,1,.33.87.87,0,0,0,.47-.13.3.3,0,0,0,.15-.24.31.31,0,0,0-.12-.23,1.52,1.52,0,0,0-.5-.24l-1.11-.39a3.24,3.24,0,0,1-1.25-.69,1.28,1.28,0,0,1-.33-.87,1.35,1.35,0,0,1,.52-1.09,2.15,2.15,0,0,1,1.46-.51,2.45,2.45,0,0,1,1.32.35Z"/><path class="cls-11" d="M215.82,195.42v1.77h1.65v1.09h-1.65v1.79a3,3,0,0,0,.06.78.5.5,0,0,0,.24.28,1,1,0,0,0,.53.14,1.91,1.91,0,0,0,1-.35V202a4.07,4.07,0,0,1-.81.3,3.81,3.81,0,0,1-.78.08,2.77,2.77,0,0,1-.85-.12,1.77,1.77,0,0,1-.62-.34,1.25,1.25,0,0,1-.37-.48,2.24,2.24,0,0,1-.1-.73v-2.45h-.77v-1a2,2,0,0,0,.71-.38,2.12,2.12,0,0,0,.47-.6,2.55,2.55,0,0,0,.24-.89Z"/><path class="cls-11" d="M221.46,199.21v-.38a1.22,1.22,0,0,0-.06-.47.42.42,0,0,0-.2-.22.81.81,0,0,0-.37-.08.75.75,0,0,0-.31.06.49.49,0,0,0-.22.14,1.09,1.09,0,0,0-.19.34,1.24,1.24,0,0,1-.33.46.81.81,0,0,1-.46.14.73.73,0,0,1-.54-.21.69.69,0,0,1-.21-.51,1,1,0,0,1,.21-.61,2.07,2.07,0,0,1,.86-.58,3.53,3.53,0,0,1,1.29-.23,3,3,0,0,1,1.22.23,1.58,1.58,0,0,1,.7.56,1.91,1.91,0,0,1,.2,1v1.84a1.79,1.79,0,0,0,0,.43.37.37,0,0,0,.16.17.44.44,0,0,0,.26.07,1.12,1.12,0,0,0,.38-.08v1a2.54,2.54,0,0,1-.83.14,2,2,0,0,1-.81-.15,1.39,1.39,0,0,1-.56-.46,4.32,4.32,0,0,1-.94.47,2.38,2.38,0,0,1-.81.14,1.74,1.74,0,0,1-1.19-.41,1.34,1.34,0,0,1-.45-1,1.29,1.29,0,0,1,.16-.64,1.39,1.39,0,0,1,.47-.5,3,3,0,0,1,1-.38A9.64,9.64,0,0,1,221.46,199.21Zm0,.85a5.42,5.42,0,0,0-1,.2.89.89,0,0,0-.4.25.51.51,0,0,0-.12.31.46.46,0,0,0,.16.35.61.61,0,0,0,.42.14,1.08,1.08,0,0,0,.39-.09,2.68,2.68,0,0,0,.5-.26Z"/><path class="cls-11" d="M229.8,194.77v6a1.67,1.67,0,0,0,0,.43.18.18,0,0,0,.1.11,1.05,1.05,0,0,0,.4,0h.24v1l-2.23.08v-.53a4.78,4.78,0,0,1-.85.45,2.37,2.37,0,0,1-.73.12,1.91,1.91,0,0,1-1.09-.32,2.34,2.34,0,0,1-.82-1,3.11,3.11,0,0,1-.31-1.41,3,3,0,0,1,.32-1.41,2.21,2.21,0,0,1,.84-1,2.1,2.1,0,0,1,1.16-.33,2.59,2.59,0,0,1,.63.08,3,3,0,0,1,.66.28V196.2h-.75v-1a5.71,5.71,0,0,0,1.9-.43Zm-1.65,6.08v-1.73a1.62,1.62,0,0,0,0-.45.71.71,0,0,0-.29-.34.87.87,0,0,0-.48-.14.83.83,0,0,0-.52.17,1.06,1.06,0,0,0-.37.51,2.15,2.15,0,0,0-.14.86,1.88,1.88,0,0,0,.31,1.14.75.75,0,0,0,.65.34,1.26,1.26,0,0,0,.33-.05A4.09,4.09,0,0,0,228.15,200.85Z"/><path class="cls-11" d="M233.62,197.06v3.8a.75.75,0,0,0,0,.34.17.17,0,0,0,.11.09.87.87,0,0,0,.35,0h.28v1h-3.18v-1h.27a1.23,1.23,0,0,0,.35,0,.21.21,0,0,0,.11-.1.72.72,0,0,0,0-.26v-2.46h-.76v-1a6.43,6.43,0,0,0,.78-.08c.25-.05.47-.1.67-.16a3.32,3.32,0,0,0,.47-.21Zm-2.06-.55-.2-.52,1.1-1a1.39,1.39,0,0,1,.88-.42.71.71,0,0,1,.53.22.77.77,0,0,1,.21.55.75.75,0,0,1-.18.47,1.17,1.17,0,0,1-.66.33Z"/><path class="cls-11" d="M238.49,197.19h.68l.41,1.43-1,.39a2.07,2.07,0,0,0-.7-.71,1.57,1.57,0,0,0-.83-.25.7.7,0,0,0-.4.09.28.28,0,0,0-.14.22.25.25,0,0,0,.1.2,1,1,0,0,0,.39.2l1.42.5a3.94,3.94,0,0,1,.72.34,1.34,1.34,0,0,1,.51.49,1.25,1.25,0,0,1,.18.68,1.43,1.43,0,0,1-.54,1.15,2.35,2.35,0,0,1-1.56.52,2.4,2.4,0,0,1-1.4-.4l-.15.28h-.68l-.63-1.69,1-.41a2.76,2.76,0,0,0,.9.9,1.87,1.87,0,0,0,1,.33.87.87,0,0,0,.47-.13.28.28,0,0,0,.14-.24.3.3,0,0,0-.11-.23,1.63,1.63,0,0,0-.5-.24l-1.11-.39a3.24,3.24,0,0,1-1.25-.69,1.29,1.29,0,0,1-.34-.87,1.38,1.38,0,0,1,.52-1.09,2.19,2.19,0,0,1,1.47-.51,2.45,2.45,0,0,1,1.32.35Z"/><path class="cls-11" d="M242.79,195.42v1.77h1.66v1.09h-1.66v1.79a2.84,2.84,0,0,0,.07.78.5.5,0,0,0,.24.28,1,1,0,0,0,.53.14,1.91,1.91,0,0,0,1.05-.35V202a4.58,4.58,0,0,1-.81.3,3.81,3.81,0,0,1-.78.08,2.77,2.77,0,0,1-.85-.12,1.91,1.91,0,0,1-.63-.34,1.32,1.32,0,0,1-.36-.48,2.24,2.24,0,0,1-.1-.73v-2.45h-.77v-1a1.9,1.9,0,0,0,1.18-1,2.79,2.79,0,0,0,.24-.89Z"/><path class="cls-11" d="M247.74,197.06v3.8a1.06,1.06,0,0,0,0,.34.23.23,0,0,0,.12.09.87.87,0,0,0,.35,0h.28v1h-3.18v-1h.27a1.23,1.23,0,0,0,.35,0,.21.21,0,0,0,.11-.1.72.72,0,0,0,0-.26v-2.46h-.76v-1a6.43,6.43,0,0,0,.78-.08c.25-.05.47-.1.67-.16a3.32,3.32,0,0,0,.47-.21Zm-.83-2.29a.92.92,0,0,1,.94.94.92.92,0,0,1-.27.67.94.94,0,0,1-1.34,0,.92.92,0,0,1-.27-.67.88.88,0,0,1,.28-.66A.9.9,0,0,1,246.91,194.77Z"/><path class="cls-11" d="M253.82,200.38l.75.66a4,4,0,0,1-1.26,1.07,3,3,0,0,1-1.4.33,2.77,2.77,0,0,1-2-.77,2.52,2.52,0,0,1-.8-1.9,2.65,2.65,0,0,1,1.39-2.36,3.27,3.27,0,0,1,1.54-.35,2.9,2.9,0,0,1,1.73.49,1.35,1.35,0,0,1,.67,1,.8.8,0,0,1-.1.41.78.78,0,0,1-.32.3,1,1,0,0,1-.46.11.78.78,0,0,1-.35-.07,1.06,1.06,0,0,1-.26-.2,1.89,1.89,0,0,1-.18-.32,2.49,2.49,0,0,0-.26-.44.72.72,0,0,0-.22-.17.73.73,0,0,0-.3-.06.86.86,0,0,0-.51.18,1.15,1.15,0,0,0-.4.52,2,2,0,0,0,0,1.63,1.33,1.33,0,0,0,.5.57,1.23,1.23,0,0,0,.68.2,1.58,1.58,0,0,0,.73-.2A3.16,3.16,0,0,0,253.82,200.38Z"/><path class="cls-11" d="M258.34,199.21v-.38a1.55,1.55,0,0,0,0-.47.49.49,0,0,0-.21-.22.81.81,0,0,0-.37-.08.78.78,0,0,0-.31.06.55.55,0,0,0-.22.14,1.35,1.35,0,0,0-.19.34,1.05,1.05,0,0,1-.33.46.78.78,0,0,1-.46.14.73.73,0,0,1-.54-.21.69.69,0,0,1-.21-.51.92.92,0,0,1,.22-.61,2,2,0,0,1,.86-.58,3.47,3.47,0,0,1,1.28-.23,3,3,0,0,1,1.22.23,1.58,1.58,0,0,1,.7.56,1.91,1.91,0,0,1,.2,1v1.84a1.79,1.79,0,0,0,0,.43.37.37,0,0,0,.16.17.46.46,0,0,0,.26.07,1.12,1.12,0,0,0,.39-.08v1a2.55,2.55,0,0,1-.84.14,2,2,0,0,1-.81-.15,1.46,1.46,0,0,1-.56-.46,4.27,4.27,0,0,1-.93.47,2.4,2.4,0,0,1-.82.14,1.69,1.69,0,0,1-1.18-.41,1.32,1.32,0,0,1-.46-1,1.41,1.41,0,0,1,.16-.64,1.48,1.48,0,0,1,.47-.5,3.22,3.22,0,0,1,1-.38A9.81,9.81,0,0,1,258.34,199.21Zm0,.85a5.65,5.65,0,0,0-.95.2,1,1,0,0,0-.4.25.56.56,0,0,0-.11.31.45.45,0,0,0,.15.35.61.61,0,0,0,.42.14,1.08,1.08,0,0,0,.39-.09,2.68,2.68,0,0,0,.5-.26Z"/><path class="cls-11" d="M270.26,194.77v6a1.67,1.67,0,0,0,0,.43.2.2,0,0,0,.11.11,1,1,0,0,0,.39,0H271v1l-2.23.08v-.53a4.46,4.46,0,0,1-.85.45,2.33,2.33,0,0,1-.73.12,1.93,1.93,0,0,1-1.09-.32,2.32,2.32,0,0,1-.81-1,3.27,3.27,0,0,1,0-2.82,2.34,2.34,0,0,1,.84-1,2.12,2.12,0,0,1,1.16-.33,2.59,2.59,0,0,1,.63.08,3.21,3.21,0,0,1,.67.28V196.2h-.75v-1a8.33,8.33,0,0,0,1-.15,7.75,7.75,0,0,0,.86-.28Zm-1.64,6.08v-1.73a1.54,1.54,0,0,0-.05-.45.64.64,0,0,0-.28-.34.93.93,0,0,0-.49-.14.82.82,0,0,0-.51.17,1.07,1.07,0,0,0-.38.51,2.34,2.34,0,0,0-.14.86,1.88,1.88,0,0,0,.32,1.14.73.73,0,0,0,.64.34,1.27,1.27,0,0,0,.34-.05A4.84,4.84,0,0,0,268.62,200.85Z"/><path class="cls-11" d="M276.33,200.42l.7.71a4,4,0,0,1-1.24,1,3,3,0,0,1-1.36.31,2.68,2.68,0,0,1-2-.79,2.59,2.59,0,0,1-.81-1.92,2.63,2.63,0,0,1,.36-1.36,2.56,2.56,0,0,1,1-1,3,3,0,0,1,1.45-.35,2.85,2.85,0,0,1,.94.15,2.19,2.19,0,0,1,1.24,1.1,2.93,2.93,0,0,1,.27.82,5.17,5.17,0,0,1,0,.66h-3.46a1.5,1.5,0,0,0,.38,1.06,1.19,1.19,0,0,0,.91.41,1.64,1.64,0,0,0,.75-.21A3.18,3.18,0,0,0,276.33,200.42Zm-1-1.49a1.35,1.35,0,0,0-.15-.49.81.81,0,0,0-.3-.28.79.79,0,0,0-.39-.11.88.88,0,0,0-.42.11.77.77,0,0,0-.32.3.94.94,0,0,0-.16.47Z"/><path class="cls-11" d="M283.67,194.77v6a1.18,1.18,0,0,0,0,.36.22.22,0,0,0,.15.15,1.74,1.74,0,0,0,.42,0h.18v1h-3.18v-1h.19a1.44,1.44,0,0,0,.4,0,.3.3,0,0,0,.13-.12,1.37,1.37,0,0,0,0-.38V196.2h-.76v-1a6.48,6.48,0,0,0,1.9-.43Z"/><path class="cls-11" d="M288.06,199.21v-.38a1.22,1.22,0,0,0-.06-.47.47.47,0,0,0-.2-.22.84.84,0,0,0-.37-.08.75.75,0,0,0-.31.06.44.44,0,0,0-.22.14,1.09,1.09,0,0,0-.19.34,1.15,1.15,0,0,1-.34.46.77.77,0,0,1-.45.14.73.73,0,0,1-.54-.21.69.69,0,0,1-.21-.51,1,1,0,0,1,.21-.61,2,2,0,0,1,.86-.58,3.49,3.49,0,0,1,1.29-.23,3,3,0,0,1,1.22.23,1.64,1.64,0,0,1,.7.56,1.93,1.93,0,0,1,.19,1v1.84a1.6,1.6,0,0,0,0,.43.3.3,0,0,0,.15.17.5.5,0,0,0,.27.07,1.12,1.12,0,0,0,.38-.08v1a2.55,2.55,0,0,1-.84.14,1.94,1.94,0,0,1-.8-.15,1.49,1.49,0,0,1-.57-.46,4.06,4.06,0,0,1-.93.47,2.38,2.38,0,0,1-.81.14,1.72,1.72,0,0,1-1.19-.41,1.34,1.34,0,0,1-.45-1,1.29,1.29,0,0,1,.16-.64,1.45,1.45,0,0,1,.46-.5,3.19,3.19,0,0,1,1-.38A9.64,9.64,0,0,1,288.06,199.21Zm0,.85a5.42,5.42,0,0,0-.95.2.89.89,0,0,0-.4.25.51.51,0,0,0-.12.31.43.43,0,0,0,.16.35.6.6,0,0,0,.41.14,1.08,1.08,0,0,0,.4-.09,3,3,0,0,0,.5-.26Z"/><path class="cls-11" d="M294.55,197.19h.68l.41,1.43-1,.39a2.07,2.07,0,0,0-.7-.71,1.57,1.57,0,0,0-.83-.25.72.72,0,0,0-.4.09.28.28,0,0,0-.14.22.25.25,0,0,0,.1.2,1,1,0,0,0,.39.2l1.42.5a3.94,3.94,0,0,1,.72.34,1.34,1.34,0,0,1,.51.49,1.25,1.25,0,0,1,.18.68,1.43,1.43,0,0,1-.54,1.15,2.35,2.35,0,0,1-1.56.52,2.4,2.4,0,0,1-1.4-.4l-.15.28h-.68l-.63-1.69,1-.41a2.76,2.76,0,0,0,.9.9,1.87,1.87,0,0,0,1,.33.87.87,0,0,0,.47-.13.28.28,0,0,0,.14-.24.3.3,0,0,0-.11-.23,1.63,1.63,0,0,0-.5-.24l-1.11-.39a3.24,3.24,0,0,1-1.25-.69,1.29,1.29,0,0,1-.34-.87,1.38,1.38,0,0,1,.52-1.09,2.19,2.19,0,0,1,1.47-.51,2.45,2.45,0,0,1,1.32.35Z"/><path class="cls-11" d="M300.08,195.14h3.51v1h-.32a1,1,0,0,0-.37,0,.34.34,0,0,0-.13.16,1.13,1.13,0,0,0,0,.4v4a1.19,1.19,0,0,0,0,.41.24.24,0,0,0,.12.14.69.69,0,0,0,.33.06h.38v1h-3.51v-1h.29a1.13,1.13,0,0,0,.4-.05.26.26,0,0,0,.13-.14,1,1,0,0,0,.05-.37v-4a1.32,1.32,0,0,0-.05-.44.28.28,0,0,0-.14-.16.9.9,0,0,0-.36,0h-.32Z"/><path class="cls-11" d="M304.34,195.14h6l.82,2.27-.93.34a3.23,3.23,0,0,0-.56-.9,1.46,1.46,0,0,0-.7-.45,3.33,3.33,0,0,0-.89-.11H307v1.79h.36a1.64,1.64,0,0,0,.55-.06.42.42,0,0,0,.21-.18,1.44,1.44,0,0,0,.06-.51v-.27h.91v3h-.91v-.31a1.05,1.05,0,0,0-.08-.46.41.41,0,0,0-.2-.19,1.7,1.7,0,0,0-.57-.06H307v1.65a.9.9,0,0,0,0,.32.18.18,0,0,0,.1.09,1.08,1.08,0,0,0,.32,0h.6a3,3,0,0,0,1.14-.19,2.16,2.16,0,0,0,.83-.63,3,3,0,0,0,.56-1l.94.32-.95,2.67h-6.21v-1h.18a1.67,1.67,0,0,0,.49-.05.33.33,0,0,0,.17-.18,1.84,1.84,0,0,0,0-.44v-3.91a1.22,1.22,0,0,0,0-.42.31.31,0,0,0-.13-.15,1,1,0,0,0-.37,0h-.32Z"/><path class="cls-11" d="M317.34,195.14l.62,2.41-1,.27a3.53,3.53,0,0,0-1.09-1.26,2.26,2.26,0,0,0-1.29-.4,1.18,1.18,0,0,0-.69.18.52.52,0,0,0-.26.4.64.64,0,0,0,.23.47,2.12,2.12,0,0,0,.84.39l1.38.4a3.37,3.37,0,0,1,1.63.88,1.83,1.83,0,0,1,.49,1.28,2,2,0,0,1-.74,1.57,3,3,0,0,1-2.06.71,3.86,3.86,0,0,1-1.05-.14,4,4,0,0,1-1-.49l-.23.51h-.76l-.51-2.78,1-.23a3.43,3.43,0,0,0,1.06,1.41,2.47,2.47,0,0,0,1.57.57,1.69,1.69,0,0,0,.64-.1.81.81,0,0,0,.39-.27.6.6,0,0,0-.17-.89,3.72,3.72,0,0,0-1.06-.44l-1.2-.35a4.52,4.52,0,0,1-.74-.29,2.64,2.64,0,0,1-.71-.44,1.88,1.88,0,0,1-.58-1.36,1.87,1.87,0,0,1,.31-1.05,2.26,2.26,0,0,1,.95-.78,3.3,3.3,0,0,1,1.41-.3,3.05,3.05,0,0,1,1.68.48l.21-.36Z"/><path class="cls-11" d="M167.44,172.1,168.7,177l-2,.56a7,7,0,0,0-2.22-2.58,4.64,4.64,0,0,0-2.63-.82,2.4,2.4,0,0,0-1.43.37,1,1,0,0,0-.52.82,1.31,1.31,0,0,0,.48,1,4.27,4.27,0,0,0,1.7.79l2.82.82a7,7,0,0,1,3.34,1.79,3.84,3.84,0,0,1,1,2.62,4.11,4.11,0,0,1-1.51,3.22,6.23,6.23,0,0,1-4.21,1.45,7.23,7.23,0,0,1-2.14-.3,7.87,7.87,0,0,1-2-1l-.46,1.05h-1.57l-1-5.69,2-.47a6.86,6.86,0,0,0,2.16,2.89,5.06,5.06,0,0,0,3.23,1.17,3.7,3.7,0,0,0,1.3-.2,1.76,1.76,0,0,0,.79-.56,1.26,1.26,0,0,0,.26-.74,1.31,1.31,0,0,0-.61-1.08,7.18,7.18,0,0,0-2.17-.89l-2.45-.72a10.9,10.9,0,0,1-1.51-.59,5.76,5.76,0,0,1-1.46-.91,3.67,3.67,0,0,1-.84-1.22,3.62,3.62,0,0,1-.34-1.56,3.75,3.75,0,0,1,.65-2.15,4.59,4.59,0,0,1,1.94-1.6,6.82,6.82,0,0,1,2.88-.61,6.23,6.23,0,0,1,3.44,1l.41-.73Z"/><path class="cls-11" d="M170.51,172.1h7.17v2H177a1.81,1.81,0,0,0-.75.1.59.59,0,0,0-.27.31,2.53,2.53,0,0,0-.09.83v8.12a3,3,0,0,0,.07.85.46.46,0,0,0,.26.27,1.26,1.26,0,0,0,.66.13h.78v2h-7.17v-2h.59a2.31,2.31,0,0,0,.81-.09.55.55,0,0,0,.28-.28,2.18,2.18,0,0,0,.09-.78v-8.15a2.88,2.88,0,0,0-.09-.9.68.68,0,0,0-.3-.33,1.8,1.8,0,0,0-.72-.08h-.66Z"/><path class="cls-11" d="M179.23,172.1h6l4.3,8.56v-5.24a3.18,3.18,0,0,0-.07-.84.65.65,0,0,0-.29-.35,1.55,1.55,0,0,0-.69-.1h-.72v-2h6.05v2h-.67a1.8,1.8,0,0,0-.72.11.6.6,0,0,0-.29.32,2.54,2.54,0,0,0-.09.86v11.35h-3L183.54,176v7.56a2.84,2.84,0,0,0,.07.83.61.61,0,0,0,.29.28,1.63,1.63,0,0,0,.7.11h.7v2h-6.07v-2h.63a1.94,1.94,0,0,0,.72-.09.66.66,0,0,0,.31-.31,1.61,1.61,0,0,0,.11-.66v-8.42a1.81,1.81,0,0,0-.1-.71.65.65,0,0,0-.29-.32,1.2,1.2,0,0,0-.59-.1h-.79Z"/><path class="cls-11" d="M195.16,172.1h12.25l1.67,4.64-1.9.68a6.16,6.16,0,0,0-1.13-1.83,3.17,3.17,0,0,0-1.43-.92,6.62,6.62,0,0,0-1.83-.23h-2.24v3.66h.74a3.42,3.42,0,0,0,1.12-.12.82.82,0,0,0,.42-.38,2.81,2.81,0,0,0,.12-1V176h1.87v6.22H203v-.64a2.2,2.2,0,0,0-.15-.94.78.78,0,0,0-.42-.4,3.83,3.83,0,0,0-1.16-.11h-.67v3.38a2,2,0,0,0,.06.65.33.33,0,0,0,.2.18,2.22,2.22,0,0,0,.66.06h1.23A6.17,6.17,0,0,0,205,184a4.55,4.55,0,0,0,1.69-1.28,6.43,6.43,0,0,0,1.14-2.1l1.92.66-1.93,5.46H195.16v-2h.37a3,3,0,0,0,1-.11.65.65,0,0,0,.35-.36,3.77,3.77,0,0,0,.06-.9v-8a2.47,2.47,0,0,0-.09-.85.59.59,0,0,0-.28-.3,1.81,1.81,0,0,0-.75-.1h-.65Z"/><path class="cls-11" d="M210.58,172.1h7.16v2h-.65a1.75,1.75,0,0,0-.75.1.57.57,0,0,0-.28.31,2.53,2.53,0,0,0-.09.83v8.12a2.88,2.88,0,0,0,.08.85.45.45,0,0,0,.25.27,1.31,1.31,0,0,0,.66.13h.78v2h-7.16v-2h.58a2.24,2.24,0,0,0,.81-.09.57.57,0,0,0,.29-.28,2.18,2.18,0,0,0,.09-.78v-8.15a2.88,2.88,0,0,0-.09-.9.71.71,0,0,0-.31-.33,1.77,1.77,0,0,0-.72-.08h-.65Z"/><path class="cls-11" d="M219.29,172.1h12.25l1.67,4.64-1.9.68a6.16,6.16,0,0,0-1.13-1.83,3.17,3.17,0,0,0-1.43-.92,6.62,6.62,0,0,0-1.83-.23h-2.24v3.66h.74a3.42,3.42,0,0,0,1.12-.12.82.82,0,0,0,.42-.38,2.81,2.81,0,0,0,.12-1V176H229v6.22h-1.87v-.64a2.2,2.2,0,0,0-.15-.94.78.78,0,0,0-.42-.4,3.83,3.83,0,0,0-1.16-.11h-.67v3.38a2,2,0,0,0,.06.65.33.33,0,0,0,.2.18,2.22,2.22,0,0,0,.66.06h1.23a6.17,6.17,0,0,0,2.33-.39,4.44,4.44,0,0,0,1.68-1.28,6.27,6.27,0,0,0,1.15-2.1l1.92.66L232,186.77H219.29v-2h.37a2.89,2.89,0,0,0,1-.11.64.64,0,0,0,.36-.36,4,4,0,0,0,.05-.9v-8a2.88,2.88,0,0,0-.08-.85.59.59,0,0,0-.28-.3,1.81,1.81,0,0,0-.75-.1h-.65Z"/><path class="cls-11" d="M245.86,172.1l1.26,4.92-2,.56a7.11,7.11,0,0,0-2.21-2.58,4.69,4.69,0,0,0-2.64-.82,2.37,2.37,0,0,0-1.42.37,1,1,0,0,0-.52.82,1.3,1.3,0,0,0,.47,1,4.41,4.41,0,0,0,1.7.79l2.82.82a7,7,0,0,1,3.35,1.79,3.84,3.84,0,0,1,1,2.62,4.12,4.12,0,0,1-1.52,3.22A6.23,6.23,0,0,1,242,187a7.28,7.28,0,0,1-2.14-.3,8,8,0,0,1-2-1l-.46,1.05h-1.57l-1-5.69,2-.47a7,7,0,0,0,2.17,2.89,5,5,0,0,0,3.22,1.17,3.76,3.76,0,0,0,1.31-.2,1.68,1.68,0,0,0,.78-.56,1.21,1.21,0,0,0,.27-.74,1.33,1.33,0,0,0-.61-1.08,7.42,7.42,0,0,0-2.17-.89l-2.45-.72a10,10,0,0,1-1.51-.59,5.59,5.59,0,0,1-1.46-.91,3.69,3.69,0,0,1-.85-1.22,3.77,3.77,0,0,1-.34-1.56,3.83,3.83,0,0,1,.65-2.15,4.57,4.57,0,0,1,1.95-1.6,6.74,6.74,0,0,1,2.87-.61,6.2,6.2,0,0,1,3.44,1l.41-.73Z"/><rect class="cls-12" width="403.98" height="224.64"/></g></g></svg>