<svg id="Capa_1" data-name="Capa 1" xmlns="http://www.w3.org/2000/svg" xmlns:xlink="http://www.w3.org/1999/xlink" viewBox="0 0 403.98 224.64"><defs><style>.cls-1{fill:#4bbdfc;}.cls-2{fill:url(#Degradado_sin_nombre_14);}.cls-3{fill:url(#Degradado_sin_nombre_22);}.cls-4{fill:none;stroke-linecap:round;stroke-linejoin:round;stroke-width:7px;stroke:url(#Degradado_sin_nombre_26);}.cls-5{fill:#317ccf;}.cls-6{fill:#c6c6c5;}.cls-10,.cls-7{fill:#fafbff;}.cls-7,.cls-8{fill-rule:evenodd;}.cls-8,.cls-9{fill:#fff;}</style><linearGradient id="Degradado_sin_nombre_14" x1="140.65" y1="161.97" x2="241.5" y2="61.11" gradientTransform="translate(19.84 -28.56) rotate(9.01)" gradientUnits="userSpaceOnUse"><stop offset="0" stop-color="#50b3f4"/><stop offset="1" stop-color="#317ccd"/></linearGradient><linearGradient id="Degradado_sin_nombre_22" x1="-869.33" y1="-78.16" x2="-743.37" y2="-78.16" gradientTransform="translate(-434.36 626.44) rotate(135)" gradientUnits="userSpaceOnUse"><stop offset="0" stop-color="#1e3a84"/><stop offset="0" stop-color="#1e3b85"/><stop offset="0.14" stop-color="#24529f"/><stop offset="0.29" stop-color="#2864b3"/><stop offset="0.46" stop-color="#2b70c1"/><stop offset="0.66" stop-color="#2c78c9"/><stop offset="1" stop-color="#2d7acc"/></linearGradient><linearGradient id="Degradado_sin_nombre_26" x1="-927.39" y1="377.3" x2="-826.15" y2="276.06" gradientTransform="translate(-693.96 446.48) rotate(180)" gradientUnits="userSpaceOnUse"><stop offset="0" stop-color="#2f7cd6"/><stop offset="1" stop-color="#3fbcf4"/></linearGradient></defs><path class="cls-1" d="M290.83,38.12l-.24-.24a6.3,6.3,0,0,0-8.91,0l-16,16a6.3,6.3,0,0,1-8.91,0h0a6.3,6.3,0,0,1,0-8.91l4-4a6.29,6.29,0,0,0,0-8.9l-.24-.24a6.3,6.3,0,0,0-8.91,0L209.51,73.94a6.3,6.3,0,0,0,0,8.91l.1.1a6.3,6.3,0,0,1,0,8.91l-27.2,27.2a6.3,6.3,0,0,0,0,8.91l.24.24a6.29,6.29,0,0,0,8.9,0l37.56-37.56a6.3,6.3,0,0,1,8.91,0l0,0a6.29,6.29,0,0,1,0,8.9l-4.13,4.13a6.3,6.3,0,0,0,0,8.91l.24.24a6.3,6.3,0,0,0,8.91,0L271.6,84.34a6.3,6.3,0,0,0,0-8.91l-.14-.13a6.3,6.3,0,0,1,0-8.91L290.83,47A6.29,6.29,0,0,0,290.83,38.12Z"/><path class="cls-1" d="M167.74,93.79l.16.16a6.37,6.37,0,0,0,9,0l60.55-60.56a6.35,6.35,0,0,0,0-9l-.24-.24a6.35,6.35,0,0,0-9,0L196.7,55.68a6.35,6.35,0,0,1-9,0l-.15-.16a6.35,6.35,0,0,0-9,0L142.86,91.24a6.35,6.35,0,0,0,0,9l.24.25a6.35,6.35,0,0,0,9,0l6.68-6.68A6.35,6.35,0,0,1,167.74,93.79Z"/><circle class="cls-2" cx="191.07" cy="111.54" r="71.32" transform="translate(-15.12 31.31) rotate(-9.01)"/><circle class="cls-3" cx="191.07" cy="111.54" r="62.98"/><path class="cls-4" d="M191.07,31.77a79.77,79.77,0,1,0,79.77,79.77"/><path class="cls-5" d="M135.92,179.49h0a6.57,6.57,0,0,1,0,9.28l-6.37,6.37a6.56,6.56,0,0,1-9.29,0h0a6.57,6.57,0,0,1,0-9.28l6.37-6.37A6.56,6.56,0,0,1,135.92,179.49Z"/><path class="cls-5" d="M185.76,179.49h0a6.57,6.57,0,0,1,0,9.28L174.13,200.4a6.56,6.56,0,0,1-9.29,0h0a6.57,6.57,0,0,1,0-9.28l11.64-11.63A6.55,6.55,0,0,1,185.76,179.49Z"/><path class="cls-6" d="M159.13,108.39l17-8a.26.26,0,0,1,.34.13.27.27,0,0,1-.12.35L159.13,109v-.57Zm0-.87,15.34-7a.25.25,0,0,0,.13-.34.25.25,0,0,0-.34-.13L159.13,107Zm-18.4-6.79a.25.25,0,0,1-.13-.34.26.26,0,0,1,.34-.13l18,8.22.19-.09V109l-.08,0a.41.41,0,0,1-.22,0l-18.1-8.27Zm18.4,6.22-.44.2L144,100a.27.27,0,0,0-.35.12.26.26,0,0,0,.12.35l14.79,7.2a.45.45,0,0,0,.23,0l.33-.15Z"/><path class="cls-7" d="M172.47,97.42a2.57,2.57,0,1,1-2.56,2.56A2.56,2.56,0,0,1,172.47,97.42Z"/><path class="cls-8" d="M195.81,98.55h1.95l1.87,7.15-2.55.77a13.26,13.26,0,0,0-2.4-3.63,4.86,4.86,0,0,0-3.39-1.47,4.45,4.45,0,0,0-2.49.77,5.26,5.26,0,0,0-1.84,2.27,8.49,8.49,0,0,0-.68,3.51,8.9,8.9,0,0,0,1.56,5.28,4.77,4.77,0,0,0,4.08,2.21,5.6,5.6,0,0,0,3.09-1,10.92,10.92,0,0,0,3.2-3.19l2.13,1.64a16.08,16.08,0,0,1-3.79,4.1,10.35,10.35,0,0,1-5.9,1.78,9.08,9.08,0,0,1-4.9-1.35,9.64,9.64,0,0,1-3.49-3.77,11,11,0,0,1-1.3-5.29,10.7,10.7,0,0,1,1.27-5.2,9.69,9.69,0,0,1,13.12-3.78l.46-.85Zm6,0h7.78l5.61,11.61v-7.1a3.77,3.77,0,0,0-.1-1.15,1,1,0,0,0-.37-.48,2.16,2.16,0,0,0-.9-.13h-.94V98.55h7.91v2.75H220a2,2,0,0,0-.94.16.81.81,0,0,0-.39.43,4,4,0,0,0-.11,1.17v15.39h-3.94l-7.11-14.67V114a3.58,3.58,0,0,0,.11,1.13.72.72,0,0,0,.37.38,2,2,0,0,0,.92.15h.92v2.75h-7.94V115.7h.82a2.48,2.48,0,0,0,.94-.12.89.89,0,0,0,.4-.43,2,2,0,0,0,.16-.89V102.84a2.28,2.28,0,0,0-.15-1,.88.88,0,0,0-.37-.45,1.77,1.77,0,0,0-.78-.13h-1V98.55Zm20.22,0h9.35v2.75h-.92a1.82,1.82,0,0,0-.9.16.86.86,0,0,0-.39.45,3.37,3.37,0,0,0-.13,1.19v7.25a8.52,8.52,0,0,0,.4,3,3,3,0,0,0,1.18,1.52,3.35,3.35,0,0,0,1.91.52,3.57,3.57,0,0,0,2-.57,3.19,3.19,0,0,0,1.26-1.45,8,8,0,0,0,.38-2.9v-8a1.58,1.58,0,0,0-.12-.72.91.91,0,0,0-.44-.39,3.12,3.12,0,0,0-1-.09h-.74V98.55h7.92v2.75h-.62a3.53,3.53,0,0,0-1.14.11,1.1,1.1,0,0,0-.48.5,3.75,3.75,0,0,0-.11,1.19V111a9.69,9.69,0,0,1-.6,3.64,6.52,6.52,0,0,1-2.67,3.1,8.22,8.22,0,0,1-4.35,1.1,8.37,8.37,0,0,1-3.17-.56,7.45,7.45,0,0,1-2.45-1.61,6,6,0,0,1-1.46-2.22,10.5,10.5,0,0,1-.42-3.45v-7.69a5.34,5.34,0,0,0-.11-1.37.86.86,0,0,0-.36-.45,2.25,2.25,0,0,0-1-.14h-.88Z"/><rect class="cls-9" x="180.53" y="120.7" width="60.8" height="0.83"/><path class="cls-8" d="M158.43,118.74l-.08,0h-.08a1,1,0,0,0-1,.87,5.16,5.16,0,0,1-2-.85,1,1,0,0,0,.33-.72,1,1,0,0,0-1-1,1,1,0,0,0-.69.29,4.93,4.93,0,0,1-.69-1.75,1,1,0,1,0,.34-1.86,1.06,1.06,0,0,0-.31.05,4.86,4.86,0,0,1,.73-1.72,1,1,0,0,0,.55.18,1,1,0,0,0,1-1,.87.87,0,0,0-.18-.55,5.14,5.14,0,0,1,1.91-.8,1,1,0,0,0,1,.84h.13v-.92l-8.73-4v14h8.73Z"/><polygon class="cls-8" points="168.25 105.64 168.25 119.81 177.18 119.81 177.18 101.47 168.25 105.64"/><polygon class="cls-8" points="149.07 105.52 140.3 101.47 140.3 119.81 149.07 119.81 149.07 105.52"/><rect class="cls-9" x="140.32" y="121.1" width="36.84" height="1.33"/><rect class="cls-9" x="140.32" y="124.33" width="36.84" height="1.33"/><path class="cls-8" d="M144.91,102.55a2.57,2.57,0,1,0-2.56-2.57A2.58,2.58,0,0,0,144.91,102.55Z"/><path class="cls-8" d="M163.08,106.35a2.35,2.35,0,1,0-2.35-2.34A2.35,2.35,0,0,0,163.08,106.35Z"/><path class="cls-8" d="M154.16,106.35a2.35,2.35,0,1,0-2.34-2.34A2.35,2.35,0,0,0,154.16,106.35Z"/><path class="cls-9" d="M161.39,119.33a5.33,5.33,0,0,0,1.6-.23,1.39,1.39,0,0,0,.84-.56l-1.61-4.77v-2.59h-.83V111h1v2.75l1.62,4.79v.08a1.54,1.54,0,0,1-1,.69,5.41,5.41,0,0,1-1.66.24Zm-2.44-.75a.85.85,0,0,0,.47.41,4.53,4.53,0,0,0,1.7.34h.27v.2h-.27a4.82,4.82,0,0,1-1.79-.35,1.08,1.08,0,0,1-.59-.56v-.07l.94-2.68,0,0a1.6,1.6,0,0,0,.43-.68,2,2,0,0,0,.09-.82v0l.1-.3,0-2.91V111h1.09v.2h-.89l0,2.82v0l-.1.3a2.14,2.14,0,0,1-.11.88,2,2,0,0,1-.46.75Z"/><path class="cls-7" d="M162.05,114.05l.95,4.6c.26.14.32.09.49-.06Z"/><rect class="cls-10" x="161.79" y="111.4" width="0.19" height="2.06"/><path class="cls-8" d="M159.05,109.94v.45a.88.88,0,0,0,.21-.47,5.24,5.24,0,0,1,1.79.68,1,1,0,0,0-.39.48h1.66v.9s.07-.09.1-.15a4.81,4.81,0,0,1,1,2.94,4.9,4.9,0,0,1-.25,1.49l.77,2.29c-.37.8-2.34,1-3.72.78a4.89,4.89,0,0,1-1,.29.88.88,0,0,0-.18-.47v.66h8.58V105.93Z"/><path class="cls-8" d="M160.32,114.32l.11-.32v-1.13a3,3,0,0,0-1.37-.79v1c.67.17,1.22.6,1.21,1.07a2.07,2.07,0,0,1-.78,1.91l0,.43-.41.09v.86l.21-.07.51-1.48A1.89,1.89,0,0,0,160.32,114.32Z"/><path class="cls-8" d="M158.35,112a2.78,2.78,0,1,0,0,5.55h.08v-.81l-.14,0,0-.22-.81.09c-.2.07-.3,0-.31-.08l0-.31c-.11,0-.11-.1,0-.14l.15,0c.12,0,.09-.23,0-.22l-.34-.12-.07-.21c0-.12-.34,0-.09-.31l.31-.43a.19.19,0,0,0,0-.28l-.18-.09c-.13-.11,0-.36.07-.51a1.56,1.56,0,0,1,1.53-.9v-1Z"/><path class="cls-9" d="M226,124.61v-.39h.11a.53.53,0,0,0,.24-.06,1.2,1.2,0,0,0,.26-.21l.22.23a1.22,1.22,0,0,1-.39.32,1,1,0,0,1-.44.1Zm0-.84v-.28h.28a.34.34,0,0,0-.05-.16.38.38,0,0,0-.09-.09.28.28,0,0,0-.13,0h0v-.32h0a.94.94,0,0,1,.3,0,.72.72,0,0,1,.24.14.83.83,0,0,1,.16.21.87.87,0,0,1,.08.26,1.28,1.28,0,0,1,0,.22Zm1.8-.88v.24a1.5,1.5,0,0,1,.23-.19.45.45,0,0,1,.19,0,.33.33,0,0,1,.14,0,.27.27,0,0,1,.1.11.33.33,0,0,1,0,.14.32.32,0,0,1-.07.19.23.23,0,0,1-.19.09h-.06l-.11,0-.07,0a.3.3,0,0,0-.14.06v.64a.28.28,0,0,0,0,.11s0,0,0,0a.29.29,0,0,0,.12,0h.08v.31h-1v-.31h.2l0,0a.28.28,0,0,0,0-.11v-.75h-.24V123a1.71,1.71,0,0,0,.56-.14Zm-1.8,0v.32a.19.19,0,0,0-.12,0,.22.22,0,0,0-.1.09.25.25,0,0,0-.05.15H226v.28h-.3a.45.45,0,0,0,.12.33.36.36,0,0,0,.18.12v.39a.85.85,0,0,1-.88-.87.92.92,0,0,1,.11-.43.87.87,0,0,1,.32-.31,1,1,0,0,1,.45-.11Zm-11.1,1.72v-.39H215a.6.6,0,0,0,.24-.06,1.16,1.16,0,0,0,.25-.21l.23.23a1.15,1.15,0,0,1-.4.32.88.88,0,0,1-.43.1Zm0-.84v-.28h.28a.5.5,0,0,0-.05-.16.45.45,0,0,0-.1-.09.27.27,0,0,0-.12,0h0v-.32h0a.94.94,0,0,1,.3,0,.59.59,0,0,1,.23.14.71.71,0,0,1,.25.47,1.28,1.28,0,0,1,0,.22Zm2.15-1.49h1.12v.32H218c-.05,0-.09,0-.11,0a.08.08,0,0,0,0,0,.42.42,0,0,0,0,.13v.84a.84.84,0,0,0,0,.35.33.33,0,0,0,.14.17.41.41,0,0,0,.23.06.48.48,0,0,0,.24-.06.4.4,0,0,0,.15-.17.92.92,0,0,0,0-.33v-.92a.22.22,0,0,0,0-.09l-.06,0h-.2v-.32h.95v.32h-.21a.09.09,0,0,0-.06.06.35.35,0,0,0,0,.13v.91a1.08,1.08,0,0,1-.08.42.68.68,0,0,1-.32.35,1,1,0,0,1-.52.13,1.16,1.16,0,0,1-.38-.06,1,1,0,0,1-.29-.19.66.66,0,0,1-.17-.25,1.08,1.08,0,0,1,0-.4v-.89a.4.4,0,0,0,0-.15.09.09,0,0,0,0-.06H217v-.32Zm3.28.61v.22a1.7,1.7,0,0,1,.32-.17.86.86,0,0,1,.27,0,.61.61,0,0,1,.28.07.43.43,0,0,1,.18.17.57.57,0,0,1,.06.29v.68a.28.28,0,0,0,0,.11.08.08,0,0,0,0,0h.2v.31h-1v-.31h.13a.1.1,0,0,0,.05,0,.25.25,0,0,0,0-.11v-.6c0-.08,0-.13,0-.15a.15.15,0,0,0-.13-.06l-.15,0a.92.92,0,0,0-.21.13v.65c0,.07,0,.11,0,.13s.05,0,.11,0h.05v.31h-1v-.31h.19l0,0a.25.25,0,0,0,0-.1v-.76h-.24V123a2,2,0,0,0,.55-.14Zm2.07-.73a.31.31,0,0,1,.3.3.29.29,0,0,1-.09.22.32.32,0,0,1-.21.08.28.28,0,0,1-.3-.3.31.31,0,0,1,.3-.3Zm.26.73v1.22a.58.58,0,0,0,0,.1.08.08,0,0,0,0,0h.2v.31h-1v-.31h.19l0,0a.22.22,0,0,0,0-.09v-.78h-.24V123l.24,0,.22-.05.15-.07Zm1.46,0H225v.32h-.12s0,0-.06,0a.35.35,0,0,0-.06.09l-.54,1.18h-.44l-.56-1.21-.05-.07a.09.09,0,0,0-.06,0H223v-.32h1v.32h-.17a.09.09,0,0,0,0,.06.12.12,0,0,0,0,.07l.25.64.27-.64a.31.31,0,0,0,0-.08.05.05,0,0,0,0,0h-.19Zm-9.22,0v.32a.17.17,0,0,0-.12,0,.24.24,0,0,0-.11.09.53.53,0,0,0,0,.15h.28v.28h-.31a.5.5,0,0,0,.13.33.36.36,0,0,0,.18.12v.39a.87.87,0,0,1-.89-.87.82.82,0,0,1,.12-.43.8.8,0,0,1,.32-.31.94.94,0,0,1,.45-.11Zm-2.15,1.71v-.38h0l.11,0a.68.68,0,0,0,.17-.1v-.55a.45.45,0,0,0,0-.14.31.31,0,0,0-.09-.11.3.3,0,0,0-.16,0h0v-.36l.08,0,.21.09v-.39h-.24v-.32a1.94,1.94,0,0,0,.33,0l.28-.09h.16v1.91a.42.42,0,0,0,0,.14,0,0,0,0,0,0,0,.31.31,0,0,0,.13,0h.07v.31l-.71,0v-.17a.87.87,0,0,1-.27.14Zm0-1.7v.36a.21.21,0,0,0-.13,0,.34.34,0,0,0-.12.16.68.68,0,0,0-.05.27.65.65,0,0,0,.1.37.24.24,0,0,0,.2.11v.38h-.15a.6.6,0,0,1-.35-.1.73.73,0,0,1-.26-.31.92.92,0,0,1-.1-.44,1,1,0,0,1,.1-.46.79.79,0,0,1,.27-.3.67.67,0,0,1,.37-.11Zm-4.37,1.66v-.32l.08,0,.16-.08v-.29l-.24,0v-.29l.24,0v-.12a.4.4,0,0,0,0-.15.12.12,0,0,0-.07-.07.2.2,0,0,0-.11,0h0v-.32h.07a.93.93,0,0,1,.39.08.58.58,0,0,1,.22.17.67.67,0,0,1,.06.32v.59a.31.31,0,0,0,0,.13s0,0,0,.06l.08,0,.12,0v.32a.86.86,0,0,1-.27,0,.62.62,0,0,1-.25,0,.43.43,0,0,1-.18-.15,1.39,1.39,0,0,1-.3.15Zm1.93-2.4v1.92c0,.07,0,.11,0,.12a.12.12,0,0,0,.05,0h.19v.31h-1v-.31h.07a.25.25,0,0,0,.12,0s0,0,0,0a.22.22,0,0,0,0-.12v-1.46h-.25v-.32a2,2,0,0,0,.61-.14Zm-1.93.73v.32l-.06,0a.13.13,0,0,0-.07,0,.29.29,0,0,0-.06.1.37.37,0,0,1-.11.15.25.25,0,0,1-.15,0,.26.26,0,0,1-.17-.07.23.23,0,0,1-.06-.16.34.34,0,0,1,.06-.2A.71.71,0,0,1,208,123a.94.94,0,0,1,.34-.08Zm0,.71v.29l-.07,0a.41.41,0,0,0-.12.08.16.16,0,0,0,0,.1.14.14,0,0,0,0,.11.19.19,0,0,0,.13,0h0v.32a1.09,1.09,0,0,1-.25,0,.58.58,0,0,1-.38-.13.42.42,0,0,1-.14-.33.35.35,0,0,1,0-.2.38.38,0,0,1,.15-.16.71.71,0,0,1,.3-.12,1.81,1.81,0,0,1,.27-.06Zm-4.21,1v-.35a.33.33,0,0,0,.24-.13.75.75,0,0,0,0-.75.29.29,0,0,0-.24-.13h0v-.36a1.06,1.06,0,0,1,.48.11.87.87,0,0,1,.19,1.37.93.93,0,0,1-.67.24Zm1.9-1.72v.22a1.67,1.67,0,0,1,.31-.17.86.86,0,0,1,.27,0,.69.69,0,0,1,.29.07.49.49,0,0,1,.18.17.72.72,0,0,1,0,.29v.68a.28.28,0,0,0,0,.11.08.08,0,0,0,0,0h.2v.31h-1v-.31h.12a.07.07,0,0,0,0,0,.2.2,0,0,0,0-.11v-.6a.24.24,0,0,0,0-.15.13.13,0,0,0-.12-.06.4.4,0,0,0-.15,0,.77.77,0,0,0-.22.13v.65a.31.31,0,0,0,0,.13.14.14,0,0,0,.11,0h.05v.31h-.95v-.31h.19a.08.08,0,0,0,0,0,.25.25,0,0,0,0-.1v-.76h-.24V123a1.93,1.93,0,0,0,.55-.14Zm-1.9,0v.36a.3.3,0,0,0-.18.06.4.4,0,0,0-.12.16.78.78,0,0,0-.05.28,1.19,1.19,0,0,0,0,.29.3.3,0,0,0,.13.16.27.27,0,0,0,.17.06h0v.35a.94.94,0,0,1-.68-.24.81.81,0,0,1-.24-.62.94.94,0,0,1,.11-.45.75.75,0,0,1,.32-.29,1,1,0,0,1,.48-.12Zm-5.28,1.67v-.32l.08,0,.16-.08v-.29l-.24,0v-.29l.24,0v-.12a.4.4,0,0,0,0-.15.12.12,0,0,0-.07-.07.2.2,0,0,0-.11,0h0v-.32h.07a.93.93,0,0,1,.39.08.58.58,0,0,1,.22.17.67.67,0,0,1,.06.32v.59a.31.31,0,0,0,0,.13s0,0,0,.06l.09,0,.12,0v.32a.86.86,0,0,1-.27,0,.62.62,0,0,1-.25,0,.34.34,0,0,1-.18-.15,1.39,1.39,0,0,1-.3.15Zm2.69-.61.25.21a1.45,1.45,0,0,1-.41.35,1,1,0,0,1-.44.1.86.86,0,0,1-.64-.25.79.79,0,0,1-.26-.6.83.83,0,0,1,.12-.44.85.85,0,0,1,.33-.32,1.07,1.07,0,0,1,.49-.11.92.92,0,0,1,.55.16.42.42,0,0,1,.22.33.2.2,0,0,1,0,.13.24.24,0,0,1-.1.1.32.32,0,0,1-.14,0,.23.23,0,0,1-.12,0l-.08-.06-.06-.1a.63.63,0,0,0-.08-.15.18.18,0,0,0-.07,0l-.09,0a.27.27,0,0,0-.17.06.43.43,0,0,0-.13.16.7.7,0,0,0-.05.25.67.67,0,0,0,.06.28.47.47,0,0,0,.16.18.43.43,0,0,0,.22.06.46.46,0,0,0,.23-.06,1,1,0,0,0,.25-.22Zm1-1.79a.29.29,0,0,1,.22.09.32.32,0,0,1,.08.21.28.28,0,0,1-.3.3.32.32,0,0,1-.21-.08.29.29,0,0,1-.09-.22.31.31,0,0,1,.3-.3Zm.27.73v1.22c0,.06,0,.09,0,.1l0,0H203v.31h-1v-.31h.2s0,0,0,0a.2.2,0,0,0,0-.09v-.78H202V123l.25,0,.21-.05.15-.07Zm-3.92,0v.32l-.06,0a.13.13,0,0,0-.07,0,.29.29,0,0,0-.06.1.37.37,0,0,1-.11.15.25.25,0,0,1-.15,0,.26.26,0,0,1-.17-.07.24.24,0,0,1-.07-.16.35.35,0,0,1,.07-.2.65.65,0,0,1,.28-.18.94.94,0,0,1,.34-.08Zm0,.71v.29l-.07,0a.31.31,0,0,0-.12.08.16.16,0,0,0,0,.1.14.14,0,0,0,.05.11.19.19,0,0,0,.13,0h.05v.32a1.09,1.09,0,0,1-.25,0,.58.58,0,0,1-.38-.13.42.42,0,0,1-.14-.33.35.35,0,0,1,0-.2.43.43,0,0,1,.14-.16.83.83,0,0,1,.31-.12,1.81,1.81,0,0,1,.27-.06Zm-5.56,1v-.35a.33.33,0,0,0,.24-.13.56.56,0,0,0,.11-.38.63.63,0,0,0-.1-.37.31.31,0,0,0-.25-.13h0v-.36a1.07,1.07,0,0,1,.49.11.93.93,0,0,1,.32.3.94.94,0,0,1,.11.45.81.81,0,0,1-.25.62.93.93,0,0,1-.67.24Zm2.32-2.33h.93l.67,1.34v-.82a.38.38,0,0,0,0-.13.15.15,0,0,0,0-.06H197v-.32h.94v.32h-.1a.2.2,0,0,0-.12,0,.07.07,0,0,0,0,0,.31.31,0,0,0,0,.13v1.77h-.47l-.85-1.69v1.19a1.05,1.05,0,0,0,0,.12.12.12,0,0,0,0,0l.11,0h.11v.31h-.95v-.31h.1l.11,0a.08.08,0,0,0,0,0,.22.22,0,0,0,0-.1v-1.31a.33.33,0,0,0,0-.12.12.12,0,0,0,0,0h-.21Zm-2.32.61v.36a.27.27,0,0,0-.17.06.34.34,0,0,0-.13.16.79.79,0,0,0,0,.28.85.85,0,0,0,0,.29.34.34,0,0,0,.12.16.27.27,0,0,0,.17.06h0v.35a.92.92,0,0,1-.67-.24.79.79,0,0,1-.25-.62.94.94,0,0,1,.11-.45.85.85,0,0,1,.33-.29,1,1,0,0,1,.48-.12Zm-2.4,2.31v-.4a.25.25,0,0,1,.12,0,.19.19,0,0,1,.12,0,.42.42,0,0,1,.15.13.11.11,0,0,0,.09,0,.09.09,0,0,0,.08,0,.3.3,0,0,0,0-.16v-1.43h-.24V123a1.58,1.58,0,0,0,.32,0,1,1,0,0,0,.29-.11H192v1.75a.88.88,0,0,1-.07.38.57.57,0,0,1-.24.22.84.84,0,0,1-.4.08.59.59,0,0,1-.28,0,.32.32,0,0,1-.13-.07Zm0-.9.1-.11-.1-.1v.21Zm0-.53H191a1.28,1.28,0,0,0,0-.22.9.9,0,0,0-.06-.22v.44Zm.85-1.61a.29.29,0,0,1,.22.09.32.32,0,0,1,0,.42.29.29,0,0,1-.22.09.29.29,0,0,1-.21-.09.27.27,0,0,1-.09-.21.31.31,0,0,1,.3-.3Zm-.85,1.17v.44h-.73v-.28h.28a.5.5,0,0,0,0-.16.45.45,0,0,0-.1-.09.27.27,0,0,0-.12,0h0v-.32h0a.94.94,0,0,1,.3,0,.59.59,0,0,1,.23.14.68.68,0,0,1,.17.21l0,0Zm0,.76v.21a1.61,1.61,0,0,1-.29.21,1,1,0,0,1-.44.1h0v-.39h.11a.6.6,0,0,0,.24-.06,1.2,1.2,0,0,0,.26-.21l.12.13Zm0,.71v.4l-.05,0a.29.29,0,0,1-.06-.17.18.18,0,0,1,.07-.15Zm-.73-1.91v.32a.19.19,0,0,0-.12,0,.24.24,0,0,0-.11.09.53.53,0,0,0-.05.15h.28v.28h-.3a.45.45,0,0,0,.12.33.36.36,0,0,0,.18.12v.39a.87.87,0,0,1-.89-.87.82.82,0,0,1,.12-.43.87.87,0,0,1,.32-.31.94.94,0,0,1,.45-.11Zm-6.09,1.72v-.35a.33.33,0,0,0,.24-.13.56.56,0,0,0,.1-.38.63.63,0,0,0-.09-.37.33.33,0,0,0-.25-.13h0v-.36a1.07,1.07,0,0,1,.49.11,1,1,0,0,1,.32.3.94.94,0,0,1,.11.45.81.81,0,0,1-.25.62.93.93,0,0,1-.67.24Zm1.9-1.72v.22a1.45,1.45,0,0,1,.32-.17.86.86,0,0,1,.27,0,.61.61,0,0,1,.28.07.49.49,0,0,1,.18.17.58.58,0,0,1,.05.29v.68a.23.23,0,0,0,0,.11l0,0h.19v.31h-1v-.31h.12a.09.09,0,0,0,.06,0,.25.25,0,0,0,0-.11v-.6a.4.4,0,0,0,0-.15.15.15,0,0,0-.13-.06.4.4,0,0,0-.15,0,.93.93,0,0,0-.22.13v.65a.19.19,0,0,0,0,.13s.05,0,.11,0h0v.31h-1v-.31h.19a.08.08,0,0,0,0,0,.22.22,0,0,0,0-.1v-.76h-.25V123a2,2,0,0,0,.56-.14Zm2.67,0h.22l.13.46-.31.12a.66.66,0,0,0-.22-.22.56.56,0,0,0-.27-.08.25.25,0,0,0-.13,0,.1.1,0,0,0,0,.07.09.09,0,0,0,0,.06l.13.07.45.16.23.1a.49.49,0,0,1,.16.16.38.38,0,0,1,.06.22.45.45,0,0,1-.17.36.72.72,0,0,1-.5.17.77.77,0,0,1-.45-.13l0,.09h-.22l-.2-.54.31-.13a.86.86,0,0,0,.28.29.62.62,0,0,0,.32.1.24.24,0,0,0,.15,0,.09.09,0,0,0,0-.08.13.13,0,0,0,0-.07.49.49,0,0,0-.16-.07l-.36-.13a1,1,0,0,1-.4-.22.4.4,0,0,1-.1-.28.44.44,0,0,1,.16-.35.74.74,0,0,1,.47-.16.82.82,0,0,1,.42.11Zm-6.21-.65h.24l.22.82-.3.09a1.75,1.75,0,0,0-.29-.41.58.58,0,0,0-.41-.17.53.53,0,0,0-.52.35,1,1,0,0,0-.08.4,1,1,0,0,0,.19.61.57.57,0,0,0,.49.25.64.64,0,0,0,.37-.11,1.3,1.3,0,0,0,.38-.36l.26.18a1.94,1.94,0,0,1-.46.48,1.33,1.33,0,0,1-.71.2,1.14,1.14,0,0,1-.58-.15,1.18,1.18,0,0,1-.42-.44,1.26,1.26,0,0,1-.16-.61,1.22,1.22,0,0,1,.16-.6,1.1,1.1,0,0,1,.41-.42,1.18,1.18,0,0,1,.59-.15,1.2,1.2,0,0,1,.57.14l.05-.1Zm1.64.61v.36a.27.27,0,0,0-.17.06.34.34,0,0,0-.13.16.78.78,0,0,0-.05.28.84.84,0,0,0,.05.29.34.34,0,0,0,.12.16.27.27,0,0,0,.17.06h0v.35a.92.92,0,0,1-.67-.24.79.79,0,0,1-.25-.62.94.94,0,0,1,.11-.45.82.82,0,0,1,.32-.29,1,1,0,0,1,.49-.12Z"/><path class="cls-9" d="M238.69,124.61v-.39h.11a.53.53,0,0,0,.24-.06,1,1,0,0,0,.26-.21l.23.23a1.25,1.25,0,0,1-.4.32.91.91,0,0,1-.43.1Zm0-.84v-.28H239a.34.34,0,0,0-.05-.16.38.38,0,0,0-.09-.09.28.28,0,0,0-.13,0h0v-.32h0a.94.94,0,0,1,.3,0,.72.72,0,0,1,.24.14.65.65,0,0,1,.16.21,1.34,1.34,0,0,1,.09.26s0,.12,0,.22Zm2.19-.84h.22l.13.46-.31.12a.66.66,0,0,0-.22-.22.56.56,0,0,0-.27-.08.23.23,0,0,0-.13,0,.08.08,0,0,0,0,.07.09.09,0,0,0,0,.06l.12.07.46.16.23.1a.61.61,0,0,1,.16.16.38.38,0,0,1,.06.22.45.45,0,0,1-.17.36.83.83,0,0,1-1,0l0,.09h-.22l-.2-.54.31-.13a1,1,0,0,0,.29.29.59.59,0,0,0,.31.1.24.24,0,0,0,.15,0,.1.1,0,0,0,.05-.08s0,0,0-.07a.34.34,0,0,0-.16-.07l-.35-.13a1,1,0,0,1-.4-.22.41.41,0,0,1-.11-.28.46.46,0,0,1,.17-.35.72.72,0,0,1,.47-.16.82.82,0,0,1,.42.11Zm-2.19,0v.32a.19.19,0,0,0-.12,0,.22.22,0,0,0-.1.09.33.33,0,0,0-.05.15h.27v.28h-.3a.45.45,0,0,0,.12.33.47.47,0,0,0,.18.12v.39a.88.88,0,0,1-.63-.25.84.84,0,0,1-.25-.62.92.92,0,0,1,.11-.43,1,1,0,0,1,.32-.31,1,1,0,0,1,.45-.11Zm-2.15,1.71v-.38h0l.11,0,.18-.1v-.55a.37.37,0,0,0,0-.14.19.19,0,0,0-.09-.11.27.27,0,0,0-.15,0h0v-.36l.08,0,.22.09v-.39h-.24v-.32l.33,0,.27-.09h.16v1.91a1.38,1.38,0,0,0,0,.14s0,0,0,0a.22.22,0,0,0,.12,0h.08v.31l-.71,0v-.17a1,1,0,0,1-.28.14Zm0-1.7v.36a.24.24,0,0,0-.13,0,.34.34,0,0,0-.12.16.7.7,0,0,0,0,.27.58.58,0,0,0,.1.37.23.23,0,0,0,.19.11v.38h-.15a.64.64,0,0,1-.35-.1.81.81,0,0,1-.26-.31,1.05,1.05,0,0,1-.1-.44,1,1,0,0,1,.11-.46.7.7,0,0,1,.63-.41Zm-2.07,1.66v-.32l.07,0,.16-.08v-.29l-.23,0v-.29l.23,0v-.12a.4.4,0,0,0,0-.15.13.13,0,0,0-.06-.07.21.21,0,0,0-.12,0h0v-.32h.06a.93.93,0,0,1,.39.08.51.51,0,0,1,.22.17.56.56,0,0,1,.07.32v.59a.38.38,0,0,0,0,.13.13.13,0,0,0,.05.06l.08,0,.12,0v.32a.85.85,0,0,1-.26,0,.67.67,0,0,1-.26,0,.43.43,0,0,1-.18-.15,1.39,1.39,0,0,1-.3.15Zm0-1.67v.32l-.07,0a.18.18,0,0,0-.07,0,.29.29,0,0,0-.06.1.37.37,0,0,1-.11.15.23.23,0,0,1-.31,0,.2.2,0,0,1-.07-.16.29.29,0,0,1,.07-.2.61.61,0,0,1,.27-.18,1,1,0,0,1,.35-.08Zm0,.71v.29l-.07,0a.49.49,0,0,0-.13.08.26.26,0,0,0,0,.1.14.14,0,0,0,.05.11.21.21,0,0,0,.13,0h.06v.32a1.27,1.27,0,0,1-.26,0,.6.6,0,0,1-.38-.13.45.45,0,0,1-.09-.53.38.38,0,0,1,.15-.16.83.83,0,0,1,.31-.12,1.81,1.81,0,0,1,.27-.06Zm-2,1v-.38h0l.11,0a.68.68,0,0,0,.17-.1v-.55a.45.45,0,0,0,0-.14.31.31,0,0,0-.09-.11.3.3,0,0,0-.16,0h0v-.36l.08,0,.21.09v-.39h-.24v-.32a1.94,1.94,0,0,0,.33,0l.28-.09h.16v1.91a.42.42,0,0,0,0,.14,0,0,0,0,0,0,0,.31.31,0,0,0,.13,0h.07v.31l-.71,0v-.17a.87.87,0,0,1-.27.14Zm-2.73-1.67h.21l.14.46-.31.12a.69.69,0,0,0-.23-.22.56.56,0,0,0-.26-.08.23.23,0,0,0-.13,0s0,0,0,.07,0,0,0,.06l.12.07.45.16.23.1a.53.53,0,0,1,.17.16.48.48,0,0,1,0,.22.42.42,0,0,1-.17.36.71.71,0,0,1-.5.17.72.72,0,0,1-.44-.13l-.05.09h-.22l-.2-.54.31-.13a.89.89,0,0,0,.29.29.59.59,0,0,0,.31.1.24.24,0,0,0,.15,0,.1.1,0,0,0,0-.08s0,0,0-.07a.4.4,0,0,0-.16-.07l-.35-.13a1,1,0,0,1-.4-.22.41.41,0,0,1-.11-.28.46.46,0,0,1,.17-.35.71.71,0,0,1,.46-.16.77.77,0,0,1,.42.11l.05-.07Zm2.73,0v.36a.21.21,0,0,0-.13,0,.34.34,0,0,0-.12.16.68.68,0,0,0-.05.27.65.65,0,0,0,.1.37.24.24,0,0,0,.2.11v.38h-.15a.6.6,0,0,1-.35-.1.73.73,0,0,1-.26-.31.92.92,0,0,1-.1-.44,1,1,0,0,1,.1-.46.79.79,0,0,1,.27-.3.67.67,0,0,1,.37-.11Zm-1.59-.74a.31.31,0,0,1,.3.3.29.29,0,0,1-.09.22.32.32,0,0,1-.21.08.29.29,0,0,1-.21-.08.29.29,0,0,1-.09-.22.31.31,0,0,1,.3-.3Zm.26.73v1.22a.58.58,0,0,0,0,.1.08.08,0,0,0,0,0h.2v.31h-1v-.31h.19l0,0a.22.22,0,0,0,0-.09v-.78h-.24V123l.25,0,.21-.05.15-.07Z"/></svg>